<?xml version="1.0" encoding="UTF-8" standalone="no"?>
<svg
   xmlns:dc="http://purl.org/dc/elements/1.1/"
   xmlns:cc="http://creativecommons.org/ns#"
   xmlns:rdf="http://www.w3.org/1999/02/22-rdf-syntax-ns#"
   xmlns:svg="http://www.w3.org/2000/svg"
   xmlns="http://www.w3.org/2000/svg"
   xmlns:sodipodi="http://sodipodi.sourceforge.net/DTD/sodipodi-0.dtd"
   xmlns:inkscape="http://www.inkscape.org/namespaces/inkscape"
   id="Capa_1"
   enable-background="new 0 0 512 512"
   height="512"
   viewBox="0 0 512 512"
   width="512"
   version="1.1"
   sodipodi:docname="dice.svg"
   inkscape:version="1.0.2 (e86c8708, 2021-01-15)">
  <metadata
     id="metadata864">
    <rdf:RDF>
      <cc:Work
         rdf:about="">
        <dc:format>image/svg+xml</dc:format>
        <dc:type
           rdf:resource="http://purl.org/dc/dcmitype/StillImage" />
      </cc:Work>
    </rdf:RDF>
  </metadata>
  <defs
     id="defs862" />
  <sodipodi:namedview
     pagecolor="#ffffff"
     bordercolor="#666666"
     borderopacity="1"
     objecttolerance="10"
     gridtolerance="10"
     guidetolerance="10"
     inkscape:pageopacity="0"
     inkscape:pageshadow="2"
     inkscape:window-width="1220"
     inkscape:window-height="691"
     id="namedview860"
     showgrid="false"
     inkscape:zoom="0.79252561"
     inkscape:cx="329.99978"
     inkscape:cy="243.05566"
     inkscape:window-x="49"
     inkscape:window-y="60"
     inkscape:window-maximized="0"
     inkscape:current-layer="g855" />
  <path
     d="m364.166 96.5-148.645-90.479c-6.594-4.014-14.031-6.021-21.469-6.021s-14.875 2.007-21.469 6.021l-148.645 90.479c-6.175 3.759-11.142 8.996-14.56 15.102l14.615 164.065h340.117l14.616-164.062c-3.417-6.107-8.385-11.346-14.56-15.105z"
     fill="#ff8086"
     id="path833"
     style="fill:#e39e80;fill-opacity:1" />
  <path
     d="m23.994 351.438c-12.341-7.485-19.877-20.871-19.877-35.304v-184.364c0-7.18 1.868-14.104 5.262-20.168l184.673 112.167 5.281 173.564-5.281 50.25c-7.417 0-14.833-1.995-21.413-5.986z"
     fill="#db4655"
     id="path835"
     style="fill:#b46847;fill-opacity:1" />
  <path
     d="m 364.11,351.438 c 12.341,-7.485 19.877,-20.871 19.877,-35.304 V 131.77 c 0,-7.18 -1.866,-14.101 -5.261,-20.165 L 194.052,223.769 v 223.814 c 7.417,0 14.833,-1.995 21.413,-5.986 z"
     fill="#e5646e"
     id="path837"
     style="fill:#d47b53;stroke-width:1;fill-opacity:1" />
  <path
     d="m260.142 231.226h214.709c18.243 0 33.032 14.789 33.032 33.032v214.709c0 6.017-1.609 11.657-4.419 16.516l-28.613 7.517h-207.184c-18.243 0-33.032-14.789-33.032-33.032v-205.71l8.969-28.6c4.863-2.818 10.512-4.432 16.538-4.432z"
     fill="#eceaec"
     id="path839" />
  <ellipse
     cx="94.981"
     cy="280.774"
     fill="#ff9a9f"
     rx="15.414"
     ry="27.246"
     transform="matrix(.92 -.392 .392 .92 -102.354 59.608)"
     id="ellipse841"
     style="fill:#dddddd;fill-opacity:1" />
  <ellipse
     cx="194.249"
     cy="107.011"
     fill="#fff"
     rx="27.199"
     ry="17.157"
     id="ellipse843" />
  <ellipse
     cx="278.739"
     cy="107.011"
     fill="#fff"
     rx="27.199"
     ry="17.157"
     id="ellipse845" />
  <ellipse
     cx="109.76"
     cy="107.011"
     fill="#fff"
     rx="27.199"
     ry="17.157"
     id="ellipse847" />
  <g
     fill="#e5646e"
     id="g855">
    <circle
       cx="367.496"
       cy="371.613"
       r="24.774"
       id="circle849"
       style="fill:#b46847;fill-opacity:1" />
    <circle
       cx="293.174"
       cy="297.291"
       r="24.774"
       id="circle851"
       style="fill:#b46847;fill-opacity:1" />
    <circle
       cx="441.819"
       cy="445.936"
       r="24.774"
       id="circle853"
       style="fill:#b46847;fill-opacity:1" />
  </g>
  <path
     d="m293.149 495.484c-27.365 0-49.548-22.184-49.548-49.548l.003-210.277c-9.818 5.726-16.494 16.415-16.494 28.6v214.709c0 18.243 14.789 33.032 33.032 33.032h214.709c12.196 0 22.892-6.684 28.614-16.516z"
     fill="#dad8db"
     id="path857" />
</svg>
