<svg width="560" height="96" viewBox="0 0 560 96" fill="none" xmlns="http://www.w3.org/2000/svg">
<path d="M96.7679 33.6265L66.7898 29.2697L53.3889 2.1017C53.0228 1.35785 52.4207 0.755694 51.6768 0.389676C49.8113 -0.531273 47.5444 0.236184 46.6116 2.1017L33.2106 29.2697L3.23258 33.6265C2.40609 33.7445 1.65044 34.1342 1.07189 34.7245C0.372466 35.4434 -0.0129512 36.4106 0.00033232 37.4135C0.0136159 38.4164 0.424513 39.373 1.14274 40.0731L22.8323 61.2195L17.708 91.0795C17.5878 91.7741 17.6647 92.4885 17.9299 93.1416C18.1951 93.7948 18.6379 94.3606 19.2083 94.7748C19.7787 95.1891 20.4537 95.4352 21.1568 95.4854C21.86 95.5355 22.5631 95.3876 23.1865 95.0585L50.0002 80.9609L76.814 95.0585C77.546 95.4481 78.3962 95.578 79.2108 95.4363C81.2653 95.0821 82.6467 93.1339 82.2925 91.0795L77.1682 61.2195L98.8577 40.0731C99.4481 39.4946 99.8377 38.7389 99.9558 37.9124C100.275 35.8462 98.8341 33.9335 96.7679 33.6265V33.6265ZM68.0414 58.2441L72.3037 83.0743L50.0002 71.3618L27.6968 83.0861L31.9591 58.2559L13.9179 40.6635L38.8544 37.0387L50.0002 14.4519L61.1461 37.0387L86.0825 40.6635L68.0414 58.2441Z" fill="#EFB130"/>
<path d="M211.768 33.6265L181.79 29.2697L168.389 2.1017C168.023 1.35785 167.421 0.755694 166.677 0.389676C164.811 -0.531273 162.544 0.236184 161.612 2.1017L148.211 29.2697L118.233 33.6265C117.406 33.7445 116.65 34.1342 116.072 34.7245C115.372 35.4434 114.987 36.4106 115 37.4135C115.014 38.4164 115.425 39.373 116.143 40.0731L137.832 61.2195L132.708 91.0795C132.588 91.7741 132.665 92.4885 132.93 93.1416C133.195 93.7948 133.638 94.3606 134.208 94.7748C134.779 95.1891 135.454 95.4352 136.157 95.4854C136.86 95.5355 137.563 95.3876 138.186 95.0585L165 80.9609L191.814 95.0585C192.546 95.4481 193.396 95.578 194.211 95.4363C196.265 95.0821 197.647 93.1339 197.292 91.0795L192.168 61.2195L213.858 40.0731C214.448 39.4946 214.838 38.7389 214.956 37.9124C215.275 35.8462 213.834 33.9335 211.768 33.6265V33.6265ZM183.041 58.2441L187.304 83.0743L165 71.3618L142.697 83.0861L146.959 58.2559L128.918 40.6635L153.854 37.0387L165 14.4519L176.146 37.0387L201.083 40.6635L183.041 58.2441Z" fill="#EFB130"/>
<path d="M441.768 33.6265L411.79 29.2697L398.389 2.1017C398.023 1.35785 397.421 0.755694 396.677 0.389676C394.811 -0.531273 392.544 0.236184 391.612 2.1017L378.211 29.2697L348.233 33.6265C347.406 33.7445 346.65 34.1342 346.072 34.7245C345.372 35.4434 344.987 36.4106 345 37.4135C345.014 38.4164 345.425 39.373 346.143 40.0731L367.832 61.2195L362.708 91.0795C362.588 91.7741 362.665 92.4885 362.93 93.1416C363.195 93.7948 363.638 94.3606 364.208 94.7748C364.779 95.1891 365.454 95.4352 366.157 95.4854C366.86 95.5355 367.563 95.3876 368.186 95.0585L395 80.9609L421.814 95.0585C422.546 95.4481 423.396 95.578 424.211 95.4363C426.265 95.0821 427.647 93.1339 427.292 91.0795L422.168 61.2195L443.858 40.0731C444.448 39.4946 444.838 38.7389 444.956 37.9124C445.275 35.8462 443.834 33.9335 441.768 33.6265V33.6265ZM413.041 58.2441L417.304 83.0743L395 71.3618L372.697 83.0861L376.959 58.2559L358.918 40.6635L383.854 37.0387L395 14.4519L406.146 37.0387L431.083 40.6635L413.041 58.2441Z" fill="#EFB130"/>
<path d="M326.768 33.6265L296.79 29.2697L283.389 2.1017C283.023 1.35785 282.421 0.755694 281.677 0.389676C279.811 -0.531273 277.544 0.236184 276.612 2.1017L263.211 29.2697L233.233 33.6265C232.406 33.7445 231.65 34.1342 231.072 34.7245C230.372 35.4434 229.987 36.4106 230 37.4135C230.014 38.4164 230.425 39.373 231.143 40.0731L252.832 61.2195L247.708 91.0795C247.588 91.7741 247.665 92.4885 247.93 93.1416C248.195 93.7948 248.638 94.3606 249.208 94.7748C249.779 95.1891 250.454 95.4352 251.157 95.4854C251.86 95.5355 252.563 95.3876 253.186 95.0585L280 80.9609L306.814 95.0585C307.546 95.4481 308.396 95.578 309.211 95.4363C311.265 95.0821 312.647 93.1339 312.292 91.0795L307.168 61.2195L328.858 40.0731C329.448 39.4946 329.838 38.7389 329.956 37.9124C330.275 35.8462 328.834 33.9335 326.768 33.6265V33.6265ZM298.041 58.2441L302.304 83.0743L280 71.3618L257.697 83.0861L261.959 58.2559L243.918 40.6635L268.854 37.0387L280 14.4519L291.146 37.0387L316.083 40.6635L298.041 58.2441Z" fill="#EFB130"/>
<path d="M556.768 33.6265L526.79 29.2697L513.389 2.1017C513.023 1.35785 512.421 0.755694 511.677 0.389676C509.811 -0.531273 507.544 0.236184 506.612 2.1017L493.211 29.2697L463.233 33.6265C462.406 33.7445 461.65 34.1342 461.072 34.7245C460.372 35.4434 459.987 36.4106 460 37.4135C460.014 38.4164 460.425 39.373 461.143 40.0731L482.832 61.2195L477.708 91.0795C477.588 91.7741 477.665 92.4885 477.93 93.1416C478.195 93.7948 478.638 94.3606 479.208 94.7748C479.779 95.1891 480.454 95.4352 481.157 95.4854C481.86 95.5355 482.563 95.3876 483.186 95.0585L510 80.9609L536.814 95.0585C537.546 95.4481 538.396 95.578 539.211 95.4363C541.265 95.0821 542.647 93.1339 542.292 91.0795L537.168 61.2195L558.858 40.0731C559.448 39.4946 559.838 38.7389 559.956 37.9124C560.275 35.8462 558.834 33.9335 556.768 33.6265V33.6265ZM528.041 58.2441L532.304 83.0743L510 71.3618L487.697 83.0861L491.959 58.2559L473.918 40.6635L498.854 37.0387L510 14.4519L521.146 37.0387L546.083 40.6635L528.041 58.2441Z" fill="#EFB130"/>
</svg>
