<svg width="322" height="83" viewBox="0 0 322 83" fill="none" xmlns="http://www.w3.org/2000/svg">
<g filter="url(#filter0_d)">
<path d="M6 70C113.5 29 163.5 106 285 52.5" stroke="#F0B214" stroke-width="15" stroke-dasharray="20 7"/>
</g>
<g filter="url(#filter1_d)">
<path d="M9.468 20.912V16.52H27.468V20.912H20.988V41H16.02V20.912H9.468ZM41.3677 28.616V36.104C41.4157 36.68 41.5117 37.088 41.6557 37.328C41.7997 37.544 42.0997 37.7 42.5557 37.796L42.4117 41.432C41.1877 41.432 40.2037 41.348 39.4597 41.18C38.7397 41.012 38.0077 40.676 37.2637 40.172C35.5357 41.012 33.7717 41.432 31.9717 41.432C28.2517 41.432 26.3917 39.464 26.3917 35.528C26.3917 33.608 26.9077 32.252 27.9397 31.46C28.9717 30.644 30.5557 30.164 32.6917 30.02L36.5437 29.732V28.616C36.5437 27.872 36.3757 27.368 36.0397 27.104C35.7037 26.816 35.1637 26.672 34.4197 26.672L27.6517 26.96L27.5077 23.612C30.0757 22.916 32.5117 22.568 34.8157 22.568C37.1437 22.568 38.8117 23.048 39.8197 24.008C40.8517 24.968 41.3677 26.504 41.3677 28.616ZM33.2677 33.368C31.9237 33.488 31.2517 34.208 31.2517 35.528C31.2517 36.848 31.8397 37.508 33.0157 37.508C33.9277 37.508 34.9237 37.364 36.0037 37.076L36.5437 36.932V33.08L33.2677 33.368ZM54.6784 22.568C57.1984 22.568 59.0344 23.264 60.1864 24.656C61.3624 26.024 61.9504 28.484 61.9504 32.036C61.9504 35.588 61.2784 38.048 59.9344 39.416C58.5904 40.76 56.2744 41.432 52.9864 41.432C51.9544 41.432 50.0704 41.312 47.3344 41.072L45.9664 40.928V15.8H50.7904V23.54C52.3264 22.892 53.6224 22.568 54.6784 22.568ZM52.9864 37.112C54.5944 37.112 55.6744 36.728 56.2264 35.96C56.7784 35.168 57.0544 33.764 57.0544 31.748C57.0544 28.508 56.0464 26.888 54.0304 26.888C53.0704 26.888 52.1584 27.008 51.2944 27.248L50.7904 27.356V36.968C51.8944 37.064 52.6264 37.112 52.9864 37.112ZM65.7644 41V15.8H70.5884V41H65.7644ZM79.2115 34.052C79.2355 35.156 79.5235 35.96 80.0755 36.464C80.6515 36.944 81.4675 37.184 82.5235 37.184C84.7555 37.184 86.7475 37.112 88.4995 36.968L89.5075 36.86L89.5795 40.424C86.8195 41.096 84.3235 41.432 82.0915 41.432C79.3795 41.432 77.4115 40.712 76.1875 39.272C74.9635 37.832 74.3515 35.492 74.3515 32.252C74.3515 25.796 77.0035 22.568 82.3075 22.568C87.5395 22.568 90.1555 25.28 90.1555 30.704L89.7955 34.052H79.2115ZM85.4035 30.38C85.4035 28.94 85.1755 27.944 84.7195 27.392C84.2635 26.816 83.4595 26.528 82.3075 26.528C81.1795 26.528 80.3755 26.828 79.8955 27.428C79.4395 28.004 79.1995 28.988 79.1755 30.38H85.4035ZM103.575 27.104H99.1471V34.484C99.1471 35.204 99.1591 35.72 99.1831 36.032C99.2311 36.32 99.3631 36.572 99.5791 36.788C99.8191 37.004 100.179 37.112 100.659 37.112L103.395 37.04L103.611 40.892C102.003 41.252 100.779 41.432 99.9391 41.432C97.7791 41.432 96.3031 40.952 95.5111 39.992C94.7191 39.008 94.3231 37.208 94.3231 34.592V27.104H92.1991V23H94.3231V17.996H99.1471V23H103.575V27.104ZM107.688 25.052C108.96 23.396 111.084 22.568 114.06 22.568C117.036 22.568 119.16 23.396 120.432 25.052C121.704 26.684 122.34 28.988 122.34 31.964C122.34 38.276 119.58 41.432 114.06 41.432C108.54 41.432 105.78 38.276 105.78 31.964C105.78 28.988 106.416 26.684 107.688 25.052ZM111.396 36.032C111.9 36.896 112.788 37.328 114.06 37.328C115.332 37.328 116.208 36.896 116.688 36.032C117.192 35.168 117.444 33.812 117.444 31.964C117.444 30.116 117.192 28.772 116.688 27.932C116.208 27.092 115.332 26.672 114.06 26.672C112.788 26.672 111.9 27.092 111.396 27.932C110.916 28.772 110.676 30.116 110.676 31.964C110.676 33.812 110.916 35.168 111.396 36.032ZM125.877 48.56V23H130.665V23.972C132.225 23.036 133.593 22.568 134.769 22.568C137.193 22.568 138.981 23.3 140.133 24.764C141.285 26.204 141.861 28.664 141.861 32.144C141.861 35.624 141.225 38.048 139.953 39.416C138.681 40.76 136.593 41.432 133.689 41.432C132.897 41.432 132.045 41.36 131.133 41.216L130.701 41.144V48.56H125.877ZM133.833 26.888C132.945 26.888 132.045 27.068 131.133 27.428L130.701 27.608V37.04C131.781 37.184 132.657 37.256 133.329 37.256C134.721 37.256 135.669 36.848 136.173 36.032C136.701 35.216 136.965 33.824 136.965 31.856C136.965 28.544 135.921 26.888 133.833 26.888ZM151.605 20.912V16.52H169.605V20.912H163.125V41H158.157V20.912H151.605ZM170.455 41V23H175.243V24.908C177.259 23.708 179.179 22.928 181.003 22.568V27.428C179.059 27.836 177.391 28.256 175.999 28.688L175.279 28.94V41H170.455ZM197.637 28.616V36.104C197.685 36.68 197.781 37.088 197.925 37.328C198.069 37.544 198.369 37.7 198.825 37.796L198.681 41.432C197.457 41.432 196.473 41.348 195.729 41.18C195.009 41.012 194.277 40.676 193.533 40.172C191.805 41.012 190.041 41.432 188.241 41.432C184.521 41.432 182.661 39.464 182.661 35.528C182.661 33.608 183.177 32.252 184.209 31.46C185.241 30.644 186.825 30.164 188.961 30.02L192.813 29.732V28.616C192.813 27.872 192.645 27.368 192.309 27.104C191.973 26.816 191.433 26.672 190.689 26.672L183.921 26.96L183.777 23.612C186.345 22.916 188.781 22.568 191.085 22.568C193.413 22.568 195.081 23.048 196.089 24.008C197.121 24.968 197.637 26.504 197.637 28.616ZM189.537 33.368C188.193 33.488 187.521 34.208 187.521 35.528C187.521 36.848 188.109 37.508 189.285 37.508C190.197 37.508 191.193 37.364 192.273 37.076L192.813 36.932V33.08L189.537 33.368ZM208.968 22.568C210.216 22.568 211.812 22.76 213.756 23.144L214.728 23.36L214.584 27.176C212.688 26.984 211.284 26.888 210.372 26.888C208.716 26.888 207.612 27.248 207.06 27.968C206.532 28.664 206.268 29.996 206.268 31.964C206.268 33.932 206.532 35.288 207.06 36.032C207.612 36.752 208.728 37.112 210.408 37.112L214.584 36.824L214.728 40.676C212.16 41.18 210.204 41.432 208.86 41.432C206.196 41.432 204.276 40.688 203.1 39.2C201.948 37.688 201.372 35.276 201.372 31.964C201.372 28.652 201.972 26.264 203.172 24.8C204.372 23.312 206.304 22.568 208.968 22.568ZM223.126 41H218.302V15.8H223.126V30.128L224.962 29.804L228.526 23H233.926L229.246 31.532L234.178 41H228.742L225.106 33.98L223.126 34.304V41ZM240.473 34.052C240.497 35.156 240.785 35.96 241.337 36.464C241.913 36.944 242.729 37.184 243.785 37.184C246.017 37.184 248.009 37.112 249.761 36.968L250.769 36.86L250.841 40.424C248.081 41.096 245.585 41.432 243.353 41.432C240.641 41.432 238.673 40.712 237.449 39.272C236.225 37.832 235.613 35.492 235.613 32.252C235.613 25.796 238.265 22.568 243.569 22.568C248.801 22.568 251.417 25.28 251.417 30.704L251.057 34.052H240.473ZM246.665 30.38C246.665 28.94 246.437 27.944 245.981 27.392C245.525 26.816 244.721 26.528 243.569 26.528C242.441 26.528 241.637 26.828 241.157 27.428C240.701 28.004 240.461 28.988 240.437 30.38H246.665ZM254.865 41V23H259.653V24.908C261.669 23.708 263.589 22.928 265.413 22.568V27.428C263.469 27.836 261.801 28.256 260.409 28.688L259.689 28.94V41H254.865Z" fill="#3F3F3F"/>
</g>
<g clip-path="url(#clip0)" filter="url(#filter2_d)">
<path d="M310.408 54.2049L299.041 47.3733L305.871 36.0089C305.939 35.897 305.983 35.7729 306.002 35.6437C306.022 35.5145 306.016 35.3828 305.984 35.2561C305.952 35.1293 305.896 35.0101 305.818 34.9051C305.741 34.8001 305.643 34.7114 305.531 34.6441L297.57 29.8578C297.344 29.7218 297.073 29.6813 296.817 29.7451C296.561 29.8089 296.341 29.9718 296.205 30.1979L289.374 41.5627L278.01 34.7313C277.558 34.4591 276.917 34.6188 276.645 35.0715L271.858 43.0328C271.723 43.259 271.682 43.5298 271.746 43.7857C271.81 44.0417 271.973 44.2619 272.199 44.398L283.564 51.2295L276.731 62.5961C276.596 62.8223 276.555 63.0931 276.619 63.349C276.683 63.6049 276.845 63.8251 277.071 63.9613L285.032 68.7471C285.144 68.8145 285.269 68.8592 285.398 68.8786C285.527 68.898 285.659 68.8917 285.786 68.8601C285.912 68.8285 286.032 68.7722 286.137 68.6945C286.242 68.6167 286.33 68.519 286.398 68.4069L293.23 57.0405L304.597 63.8721C304.832 64.0133 305.102 64.0466 305.35 63.9849C305.598 63.9231 305.821 63.7671 305.962 63.5318L310.749 55.57C310.884 55.3438 310.925 55.0729 310.861 54.8169C310.797 54.5609 310.634 54.3408 310.408 54.2049V54.2049Z" fill="#B46847"/>
</g>
<defs>
<filter id="filter0_d" x="0.327148" y="44.636" width="288.695" height="38.0403" filterUnits="userSpaceOnUse" color-interpolation-filters="sRGB">
<feFlood flood-opacity="0" result="BackgroundImageFix"/>
<feColorMatrix in="SourceAlpha" type="matrix" values="0 0 0 0 0 0 0 0 0 0 0 0 0 0 0 0 0 0 127 0"/>
<feOffset dx="-1" dy="1"/>
<feGaussianBlur stdDeviation="1"/>
<feColorMatrix type="matrix" values="0 0 0 0 0.6875 0 0 0 0 0.54725 0 0 0 0 0.275 0 0 0 1 0"/>
<feBlend mode="normal" in2="BackgroundImageFix" result="effect1_dropShadow"/>
<feBlend mode="normal" in="SourceGraphic" in2="effect1_dropShadow" result="shape"/>
</filter>
<filter id="filter1_d" x="8.96777" y="15.8" width="256.445" height="33.26" filterUnits="userSpaceOnUse" color-interpolation-filters="sRGB">
<feFlood flood-opacity="0" result="BackgroundImageFix"/>
<feColorMatrix in="SourceAlpha" type="matrix" values="0 0 0 0 0 0 0 0 0 0 0 0 0 0 0 0 0 0 127 0"/>
<feOffset dx="-0.5" dy="0.5"/>
<feColorMatrix type="matrix" values="0 0 0 0 0 0 0 0 0 0 0 0 0 0 0 0 0 0 0.29 0"/>
<feBlend mode="normal" in2="BackgroundImageFix" result="effect1_dropShadow"/>
<feBlend mode="normal" in="SourceGraphic" in2="effect1_dropShadow" result="shape"/>
</filter>
<filter id="filter2_d" x="256" y="16" width="68.6049" height="68.6049" filterUnits="userSpaceOnUse" color-interpolation-filters="sRGB">
<feFlood flood-opacity="0" result="BackgroundImageFix"/>
<feColorMatrix in="SourceAlpha" type="matrix" values="0 0 0 0 0 0 0 0 0 0 0 0 0 0 0 0 0 0 127 0"/>
<feOffset dx="-1" dy="1"/>
<feGaussianBlur stdDeviation="2"/>
<feColorMatrix type="matrix" values="0 0 0 0 0 0 0 0 0 0 0 0 0 0 0 0 0 0 0.25 0"/>
<feBlend mode="normal" in2="BackgroundImageFix" result="effect1_dropShadow"/>
<feBlend mode="normal" in="SourceGraphic" in2="effect1_dropShadow" result="shape"/>
</filter>
<clipPath id="clip0">
<rect width="50" height="50" fill="white" transform="translate(261 31.0881) rotate(-13.9905)"/>
</clipPath>
</defs>
</svg>
