<svg width="319" height="78" viewBox="0 0 319 78" fill="none" xmlns="http://www.w3.org/2000/svg">
<path d="M2 67C109.5 26 159.5 103 281 49.5" stroke="#F0B214" stroke-width="10" stroke-dasharray="20 8"/>
<g filter="url(#filter0_d)">
<path d="M4.468 20.912V16.52H22.468V20.912H15.988V41H11.02V20.912H4.468ZM36.3677 28.616V36.104C36.4157 36.68 36.5117 37.088 36.6557 37.328C36.7997 37.544 37.0997 37.7 37.5557 37.796L37.4117 41.432C36.1877 41.432 35.2037 41.348 34.4597 41.18C33.7397 41.012 33.0077 40.676 32.2637 40.172C30.5357 41.012 28.7717 41.432 26.9717 41.432C23.2517 41.432 21.3917 39.464 21.3917 35.528C21.3917 33.608 21.9077 32.252 22.9397 31.46C23.9717 30.644 25.5557 30.164 27.6917 30.02L31.5437 29.732V28.616C31.5437 27.872 31.3757 27.368 31.0397 27.104C30.7037 26.816 30.1637 26.672 29.4197 26.672L22.6517 26.96L22.5077 23.612C25.0757 22.916 27.5117 22.568 29.8157 22.568C32.1437 22.568 33.8117 23.048 34.8197 24.008C35.8517 24.968 36.3677 26.504 36.3677 28.616ZM28.2677 33.368C26.9237 33.488 26.2517 34.208 26.2517 35.528C26.2517 36.848 26.8397 37.508 28.0157 37.508C28.9277 37.508 29.9237 37.364 31.0037 37.076L31.5437 36.932V33.08L28.2677 33.368ZM49.6784 22.568C52.1984 22.568 54.0344 23.264 55.1864 24.656C56.3624 26.024 56.9504 28.484 56.9504 32.036C56.9504 35.588 56.2784 38.048 54.9344 39.416C53.5904 40.76 51.2744 41.432 47.9864 41.432C46.9544 41.432 45.0704 41.312 42.3344 41.072L40.9664 40.928V15.8H45.7904V23.54C47.3264 22.892 48.6224 22.568 49.6784 22.568ZM47.9864 37.112C49.5944 37.112 50.6744 36.728 51.2264 35.96C51.7784 35.168 52.0544 33.764 52.0544 31.748C52.0544 28.508 51.0464 26.888 49.0304 26.888C48.0704 26.888 47.1584 27.008 46.2944 27.248L45.7904 27.356V36.968C46.8944 37.064 47.6264 37.112 47.9864 37.112ZM60.7644 41V15.8H65.5884V41H60.7644ZM74.2115 34.052C74.2355 35.156 74.5235 35.96 75.0755 36.464C75.6515 36.944 76.4675 37.184 77.5235 37.184C79.7555 37.184 81.7475 37.112 83.4995 36.968L84.5075 36.86L84.5795 40.424C81.8195 41.096 79.3235 41.432 77.0915 41.432C74.3795 41.432 72.4115 40.712 71.1875 39.272C69.9635 37.832 69.3515 35.492 69.3515 32.252C69.3515 25.796 72.0035 22.568 77.3075 22.568C82.5395 22.568 85.1555 25.28 85.1555 30.704L84.7955 34.052H74.2115ZM80.4035 30.38C80.4035 28.94 80.1755 27.944 79.7195 27.392C79.2635 26.816 78.4595 26.528 77.3075 26.528C76.1795 26.528 75.3755 26.828 74.8955 27.428C74.4395 28.004 74.1995 28.988 74.1755 30.38H80.4035ZM98.5751 27.104H94.1471V34.484C94.1471 35.204 94.1591 35.72 94.1831 36.032C94.2311 36.32 94.3631 36.572 94.5791 36.788C94.8191 37.004 95.1791 37.112 95.6591 37.112L98.3951 37.04L98.6111 40.892C97.0031 41.252 95.7791 41.432 94.9391 41.432C92.7791 41.432 91.3031 40.952 90.5111 39.992C89.7191 39.008 89.3231 37.208 89.3231 34.592V27.104H87.1991V23H89.3231V17.996H94.1471V23H98.5751V27.104ZM102.688 25.052C103.96 23.396 106.084 22.568 109.06 22.568C112.036 22.568 114.16 23.396 115.432 25.052C116.704 26.684 117.34 28.988 117.34 31.964C117.34 38.276 114.58 41.432 109.06 41.432C103.54 41.432 100.78 38.276 100.78 31.964C100.78 28.988 101.416 26.684 102.688 25.052ZM106.396 36.032C106.9 36.896 107.788 37.328 109.06 37.328C110.332 37.328 111.208 36.896 111.688 36.032C112.192 35.168 112.444 33.812 112.444 31.964C112.444 30.116 112.192 28.772 111.688 27.932C111.208 27.092 110.332 26.672 109.06 26.672C107.788 26.672 106.9 27.092 106.396 27.932C105.916 28.772 105.676 30.116 105.676 31.964C105.676 33.812 105.916 35.168 106.396 36.032ZM120.877 48.56V23H125.665V23.972C127.225 23.036 128.593 22.568 129.769 22.568C132.193 22.568 133.981 23.3 135.133 24.764C136.285 26.204 136.861 28.664 136.861 32.144C136.861 35.624 136.225 38.048 134.953 39.416C133.681 40.76 131.593 41.432 128.689 41.432C127.897 41.432 127.045 41.36 126.133 41.216L125.701 41.144V48.56H120.877ZM128.833 26.888C127.945 26.888 127.045 27.068 126.133 27.428L125.701 27.608V37.04C126.781 37.184 127.657 37.256 128.329 37.256C129.721 37.256 130.669 36.848 131.173 36.032C131.701 35.216 131.965 33.824 131.965 31.856C131.965 28.544 130.921 26.888 128.833 26.888ZM146.605 20.912V16.52H164.605V20.912H158.125V41H153.157V20.912H146.605ZM165.455 41V23H170.243V24.908C172.259 23.708 174.179 22.928 176.003 22.568V27.428C174.059 27.836 172.391 28.256 170.999 28.688L170.279 28.94V41H165.455ZM192.637 28.616V36.104C192.685 36.68 192.781 37.088 192.925 37.328C193.069 37.544 193.369 37.7 193.825 37.796L193.681 41.432C192.457 41.432 191.473 41.348 190.729 41.18C190.009 41.012 189.277 40.676 188.533 40.172C186.805 41.012 185.041 41.432 183.241 41.432C179.521 41.432 177.661 39.464 177.661 35.528C177.661 33.608 178.177 32.252 179.209 31.46C180.241 30.644 181.825 30.164 183.961 30.02L187.813 29.732V28.616C187.813 27.872 187.645 27.368 187.309 27.104C186.973 26.816 186.433 26.672 185.689 26.672L178.921 26.96L178.777 23.612C181.345 22.916 183.781 22.568 186.085 22.568C188.413 22.568 190.081 23.048 191.089 24.008C192.121 24.968 192.637 26.504 192.637 28.616ZM184.537 33.368C183.193 33.488 182.521 34.208 182.521 35.528C182.521 36.848 183.109 37.508 184.285 37.508C185.197 37.508 186.193 37.364 187.273 37.076L187.813 36.932V33.08L184.537 33.368ZM203.968 22.568C205.216 22.568 206.812 22.76 208.756 23.144L209.728 23.36L209.584 27.176C207.688 26.984 206.284 26.888 205.372 26.888C203.716 26.888 202.612 27.248 202.06 27.968C201.532 28.664 201.268 29.996 201.268 31.964C201.268 33.932 201.532 35.288 202.06 36.032C202.612 36.752 203.728 37.112 205.408 37.112L209.584 36.824L209.728 40.676C207.16 41.18 205.204 41.432 203.86 41.432C201.196 41.432 199.276 40.688 198.1 39.2C196.948 37.688 196.372 35.276 196.372 31.964C196.372 28.652 196.972 26.264 198.172 24.8C199.372 23.312 201.304 22.568 203.968 22.568ZM218.126 41H213.302V15.8H218.126V30.128L219.962 29.804L223.526 23H228.926L224.246 31.532L229.178 41H223.742L220.106 33.98L218.126 34.304V41ZM235.473 34.052C235.497 35.156 235.785 35.96 236.337 36.464C236.913 36.944 237.729 37.184 238.785 37.184C241.017 37.184 243.009 37.112 244.761 36.968L245.769 36.86L245.841 40.424C243.081 41.096 240.585 41.432 238.353 41.432C235.641 41.432 233.673 40.712 232.449 39.272C231.225 37.832 230.613 35.492 230.613 32.252C230.613 25.796 233.265 22.568 238.569 22.568C243.801 22.568 246.417 25.28 246.417 30.704L246.057 34.052H235.473ZM241.665 30.38C241.665 28.94 241.437 27.944 240.981 27.392C240.525 26.816 239.721 26.528 238.569 26.528C237.441 26.528 236.637 26.828 236.157 27.428C235.701 28.004 235.461 28.988 235.437 30.38H241.665ZM249.865 41V23H254.653V24.908C256.669 23.708 258.589 22.928 260.413 22.568V27.428C258.469 27.836 256.801 28.256 255.409 28.688L254.689 28.94V41H249.865Z" fill="#3F3F3F"/>
<path d="M4.468 20.912H3.968V21.412H4.468V20.912ZM4.468 16.52V16.02H3.968V16.52H4.468ZM22.468 16.52H22.968V16.02H22.468V16.52ZM22.468 20.912V21.412H22.968V20.912H22.468ZM15.988 20.912V20.412H15.488V20.912H15.988ZM15.988 41V41.5H16.488V41H15.988ZM11.02 41H10.52V41.5H11.02V41ZM11.02 20.912H11.52V20.412H11.02V20.912ZM4.968 20.912V16.52H3.968V20.912H4.968ZM4.468 17.02H22.468V16.02H4.468V17.02ZM21.968 16.52V20.912H22.968V16.52H21.968ZM22.468 20.412H15.988V21.412H22.468V20.412ZM15.488 20.912V41H16.488V20.912H15.488ZM15.988 40.5H11.02V41.5H15.988V40.5ZM11.52 41V20.912H10.52V41H11.52ZM11.02 20.412H4.468V21.412H11.02V20.412ZM36.3677 36.104H35.8677V36.1248L35.8694 36.1455L36.3677 36.104ZM36.6557 37.328L36.2269 37.5852L36.233 37.5955L36.2396 37.6054L36.6557 37.328ZM37.5557 37.796L38.0553 37.8158L38.072 37.3937L37.6587 37.3067L37.5557 37.796ZM37.4117 41.432V41.932H37.8922L37.9113 41.4518L37.4117 41.432ZM34.4597 41.18L34.346 41.6669L34.3495 41.6677L34.4597 41.18ZM32.2637 40.172L32.5441 39.758L32.3049 39.596L32.0451 39.7223L32.2637 40.172ZM22.9397 31.46L23.2441 31.8567L23.2498 31.8522L22.9397 31.46ZM27.6917 30.02L27.7253 30.5189L27.7289 30.5186L27.6917 30.02ZM31.5437 29.732L31.5809 30.2306L32.0437 30.196V29.732H31.5437ZM31.0397 27.104L30.7143 27.4836L30.7224 27.4906L30.7307 27.4972L31.0397 27.104ZM29.4197 26.672V26.172H29.409L29.3984 26.1725L29.4197 26.672ZM22.6517 26.96L22.1521 26.9815L22.1736 27.4808L22.6729 27.4595L22.6517 26.96ZM22.5077 23.612L22.3769 23.1294L21.9909 23.234L22.0081 23.6335L22.5077 23.612ZM34.8197 24.008L34.4748 24.3701L34.4791 24.3741L34.8197 24.008ZM28.2677 33.368L28.2239 32.8699L28.2232 32.87L28.2677 33.368ZM31.0037 37.076L30.8748 36.5929L30.8748 36.5929L31.0037 37.076ZM31.5437 36.932L31.6725 37.4151L32.0437 37.3161V36.932H31.5437ZM31.5437 33.08H32.0437V32.5341L31.4999 32.5819L31.5437 33.08ZM35.8677 28.616V36.104H36.8677V28.616H35.8677ZM35.8694 36.1455C35.9184 36.7333 36.0201 37.2405 36.2269 37.5852L37.0844 37.0708C37.0032 36.9355 36.9129 36.6267 36.8659 36.0625L35.8694 36.1455ZM36.2396 37.6054C36.4958 37.9896 36.9614 38.1819 37.4527 38.2853L37.6587 37.3067C37.2379 37.2181 37.1035 37.0984 37.0717 37.0506L36.2396 37.6054ZM37.056 37.7762L36.912 41.4122L37.9113 41.4518L38.0553 37.8158L37.056 37.7762ZM37.4117 40.932C36.2053 40.932 35.2627 40.8487 34.5698 40.6923L34.3495 41.6677C35.1446 41.8473 36.17 41.932 37.4117 41.932V40.932ZM34.5733 40.6931C33.9242 40.5416 33.248 40.2349 32.5441 39.758L31.9832 40.586C32.7673 41.1171 33.5551 41.4824 34.346 41.6669L34.5733 40.6931ZM32.0451 39.7223C30.3805 40.5315 28.6909 40.932 26.9717 40.932V41.932C28.8524 41.932 30.6908 41.4925 32.4823 40.6217L32.0451 39.7223ZM26.9717 40.932C25.1962 40.932 23.9545 40.4637 23.15 39.6126C22.3406 38.7561 21.8917 37.4257 21.8917 35.528H20.8917C20.8917 37.5663 21.3727 39.1879 22.4233 40.2994C23.4788 41.4163 25.0271 41.932 26.9717 41.932V40.932ZM21.8917 35.528C21.8917 33.6866 22.3857 32.5154 23.2441 31.8567L22.6352 31.0633C21.4296 31.9886 20.8917 33.5294 20.8917 35.528H21.8917ZM23.2498 31.8522C24.1669 31.1271 25.6325 30.66 27.7253 30.5189L27.658 29.5211C25.4788 29.668 23.7764 30.1609 22.6295 31.0678L23.2498 31.8522ZM27.7289 30.5186L31.5809 30.2306L31.5064 29.2334L27.6544 29.5214L27.7289 30.5186ZM32.0437 29.732V28.616H31.0437V29.732H32.0437ZM32.0437 28.616C32.0437 27.8281 31.8709 27.1213 31.3486 26.7108L30.7307 27.4972C30.8804 27.6147 31.0437 27.9159 31.0437 28.616H32.0437ZM31.3651 26.7244C30.8943 26.3209 30.2081 26.172 29.4197 26.172V27.172C30.1192 27.172 30.513 27.3111 30.7143 27.4836L31.3651 26.7244ZM29.3984 26.1725L22.6304 26.4605L22.6729 27.4595L29.4409 27.1715L29.3984 26.1725ZM23.1512 26.9385L23.0072 23.5905L22.0081 23.6335L22.1521 26.9815L23.1512 26.9385ZM22.6385 24.0946C25.1702 23.4084 27.562 23.068 29.8157 23.068V22.068C27.4613 22.068 24.9811 22.4236 22.3769 23.1294L22.6385 24.0946ZM29.8157 23.068C32.0962 23.068 33.6053 23.542 34.4748 24.3701L35.1645 23.6459C34.018 22.554 32.1911 22.068 29.8157 22.068V23.068ZM34.4791 24.3741C35.3679 25.2009 35.8677 26.5737 35.8677 28.616H36.8677C36.8677 26.4343 36.3354 24.7351 35.1602 23.6419L34.4791 24.3741ZM28.2232 32.87C27.4742 32.9369 26.837 33.1781 26.3901 33.6568C25.9418 34.1372 25.7517 34.7853 25.7517 35.528H26.7517C26.7517 34.9507 26.8975 34.5788 27.1212 34.3392C27.3464 34.0979 27.7171 33.9191 28.3121 33.866L28.2232 32.87ZM25.7517 35.528C25.7517 36.2518 25.9116 36.888 26.3193 37.3456C26.7369 37.8143 27.3347 38.008 28.0157 38.008V37.008C27.5206 37.008 27.2365 36.8717 27.066 36.6804C26.8857 36.478 26.7517 36.1242 26.7517 35.528H25.7517ZM28.0157 38.008C28.9796 38.008 30.0195 37.8559 31.1325 37.5591L30.8748 36.5929C29.8278 36.8721 28.8757 37.008 28.0157 37.008V38.008ZM31.1325 37.5591L31.6725 37.4151L31.4148 36.4489L30.8748 36.5929L31.1325 37.5591ZM32.0437 36.932V33.08H31.0437V36.932H32.0437ZM31.4999 32.5819L28.2239 32.8699L28.3114 33.8661L31.5874 33.5781L31.4999 32.5819ZM55.1864 24.656L54.8011 24.9748L54.8072 24.9819L55.1864 24.656ZM54.9344 39.416L55.2879 39.7696L55.291 39.7664L54.9344 39.416ZM42.3344 41.072L42.282 41.5693L42.2907 41.5701L42.3344 41.072ZM40.9664 40.928H40.4664V41.3781L40.914 41.4253L40.9664 40.928ZM40.9664 15.8V15.3H40.4664V15.8H40.9664ZM45.7904 15.8H46.2904V15.3H45.7904V15.8ZM45.7904 23.54H45.2904V24.2936L45.9847 24.0007L45.7904 23.54ZM51.2264 35.96L51.6324 36.2518L51.6366 36.2459L51.2264 35.96ZM46.2944 27.248L46.3991 27.7369L46.4138 27.7338L46.4282 27.7298L46.2944 27.248ZM45.7904 27.356L45.6856 26.8671L45.2904 26.9518V27.356H45.7904ZM45.7904 36.968H45.2904V37.4264L45.7471 37.4661L45.7904 36.968ZM49.6784 23.068C52.111 23.068 53.7775 23.7378 54.8012 24.9748L55.5716 24.3372C54.2913 22.7902 52.2857 22.068 49.6784 22.068V23.068ZM54.8072 24.9819C55.8586 26.205 56.4504 28.5043 56.4504 32.036H57.4504C57.4504 28.4637 56.8661 25.843 55.5655 24.3301L54.8072 24.9819ZM56.4504 32.036C56.4504 35.5573 55.7777 37.8441 54.5777 39.0656L55.291 39.7664C56.779 38.2519 57.4504 35.6187 57.4504 32.036H56.4504ZM54.5808 39.0624C53.3793 40.264 51.2318 40.932 47.9864 40.932V41.932C51.317 41.932 53.8015 41.256 55.2879 39.7696L54.5808 39.0624ZM47.9864 40.932C46.9792 40.932 45.1157 40.8141 42.3781 40.5739L42.2907 41.5701C45.025 41.8099 46.9295 41.932 47.9864 41.932V40.932ZM42.3867 40.5747L41.0187 40.4307L40.914 41.4253L42.282 41.5693L42.3867 40.5747ZM41.4664 40.928V15.8H40.4664V40.928H41.4664ZM40.9664 16.3H45.7904V15.3H40.9664V16.3ZM45.2904 15.8V23.54H46.2904V15.8H45.2904ZM45.9847 24.0007C47.4908 23.3653 48.7165 23.068 49.6784 23.068V22.068C48.5282 22.068 47.1619 22.4187 45.596 23.0793L45.9847 24.0007ZM47.9864 37.612C49.6438 37.612 50.9363 37.2203 51.6324 36.2518L50.8204 35.6682C50.4125 36.2357 49.5449 36.612 47.9864 36.612V37.612ZM51.6366 36.2459C52.2833 35.318 52.5544 33.7759 52.5544 31.748H51.5544C51.5544 33.7521 51.2735 35.018 50.8162 35.6741L51.6366 36.2459ZM52.5544 31.748C52.5544 30.0924 52.2997 28.7659 51.7229 27.8388C51.1216 26.8724 50.1993 26.388 49.0304 26.388V27.388C49.8774 27.388 50.4672 27.7136 50.8738 28.3672C51.305 29.0601 51.5544 30.1636 51.5544 31.748H52.5544ZM49.0304 26.388C48.0283 26.388 47.0711 26.5133 46.1606 26.7662L46.4282 27.7298C47.2457 27.5027 48.1124 27.388 49.0304 27.388V26.388ZM46.1896 26.7591L45.6856 26.8671L45.8951 27.8449L46.3991 27.7369L46.1896 26.7591ZM45.2904 27.356V36.968H46.2904V27.356H45.2904ZM45.7471 37.4661C46.847 37.5618 47.6009 37.612 47.9864 37.612V36.612C47.6518 36.612 46.9417 36.5662 45.8337 36.4699L45.7471 37.4661ZM60.7644 41H60.2644V41.5H60.7644V41ZM60.7644 15.8V15.3H60.2644V15.8H60.7644ZM65.5884 15.8H66.0884V15.3H65.5884V15.8ZM65.5884 41V41.5H66.0884V41H65.5884ZM61.2644 41V15.8H60.2644V41H61.2644ZM60.7644 16.3H65.5884V15.3H60.7644V16.3ZM65.0884 15.8V41H66.0884V15.8H65.0884ZM65.5884 40.5H60.7644V41.5H65.5884V40.5ZM74.2115 34.052V33.552H73.7005L73.7116 34.0629L74.2115 34.052ZM75.0755 36.464L74.7384 36.8332L74.7468 36.8409L74.7554 36.8481L75.0755 36.464ZM83.4995 36.968L83.5405 37.4665L83.5528 37.4652L83.4995 36.968ZM84.5075 36.86L85.0074 36.8499L84.9964 36.3048L84.4543 36.3628L84.5075 36.86ZM84.5795 40.424L84.6978 40.9098L85.0875 40.8149L85.0794 40.4139L84.5795 40.424ZM71.1875 39.272L70.8066 39.5958L71.1875 39.272ZM85.1555 30.704L85.6527 30.7575L85.6555 30.7308V30.704H85.1555ZM84.7955 34.052V34.552H85.2447L85.2927 34.1055L84.7955 34.052ZM80.4035 30.38V30.88H80.9035V30.38H80.4035ZM79.7195 27.392L79.3274 27.7024L79.3341 27.7104L79.7195 27.392ZM74.8955 27.428L74.5051 27.1156L74.5035 27.1176L74.8955 27.428ZM74.1755 30.38L73.6756 30.3714L73.6668 30.88H74.1755V30.38ZM73.7116 34.0629C73.7372 35.2382 74.0456 36.2007 74.7384 36.8332L75.4127 36.0948C75.0014 35.7193 74.7339 35.0738 74.7114 34.0411L73.7116 34.0629ZM74.7554 36.8481C75.4518 37.4285 76.3977 37.684 77.5235 37.684V36.684C76.5374 36.684 75.8512 36.4595 75.3956 36.0799L74.7554 36.8481ZM77.5235 37.684C79.7658 37.684 81.7718 37.6117 83.5405 37.4663L83.4586 36.4697C81.7232 36.6123 79.7453 36.684 77.5235 36.684V37.684ZM83.5528 37.4652L84.5608 37.3572L84.4543 36.3628L83.4463 36.4708L83.5528 37.4652ZM84.0076 36.8701L84.0796 40.4341L85.0794 40.4139L85.0074 36.8499L84.0076 36.8701ZM84.4612 39.9382C81.73 40.6032 79.2746 40.932 77.0915 40.932V41.932C79.3725 41.932 81.909 41.5888 84.6978 40.9098L84.4612 39.9382ZM77.0915 40.932C74.4604 40.932 72.6618 40.2344 71.5685 38.9482L70.8066 39.5958C72.1612 41.1896 74.2987 41.932 77.0915 41.932V40.932ZM71.5685 38.9482C70.4598 37.6438 69.8515 35.4507 69.8515 32.252H68.8515C68.8515 35.5333 69.4672 38.0202 70.8066 39.5958L71.5685 38.9482ZM69.8515 32.252C69.8515 29.0798 70.5051 26.7936 71.7269 25.3064C72.9332 23.838 74.7614 23.068 77.3075 23.068V22.068C74.5497 22.068 72.3998 22.912 70.9542 24.6716C69.524 26.4124 68.8515 28.9682 68.8515 32.252H69.8515ZM77.3075 23.068C79.8418 23.068 81.6517 23.7238 82.8337 24.9491C84.0188 26.1778 84.6555 28.0647 84.6555 30.704H85.6555C85.6555 27.9193 84.9842 25.7382 83.5534 24.2549C82.1193 22.7682 80.0053 22.068 77.3075 22.068V23.068ZM84.6584 30.6505L84.2984 33.9985L85.2927 34.1055L85.6527 30.7575L84.6584 30.6505ZM84.7955 33.552H74.2115V34.552H84.7955V33.552ZM80.9035 30.38C80.9035 28.9229 80.6801 27.7697 80.105 27.0736L79.3341 27.7104C79.671 28.1183 79.9035 28.9571 79.9035 30.38H80.9035ZM80.1116 27.0816C79.5172 26.3309 78.5248 26.028 77.3075 26.028V27.028C78.3942 27.028 79.0099 27.3011 79.3275 27.7024L80.1116 27.0816ZM77.3075 26.028C76.1011 26.028 75.118 26.3496 74.5051 27.1157L75.286 27.7403C75.6331 27.3064 76.2579 27.028 77.3075 27.028V26.028ZM74.5035 27.1176C73.941 27.8282 73.7 28.9542 73.6756 30.3714L74.6755 30.3886C74.699 29.0218 74.9381 28.1798 75.2876 27.7384L74.5035 27.1176ZM74.1755 30.88H80.4035V29.88H74.1755V30.88ZM98.5751 27.104V27.604H99.0751V27.104H98.5751ZM94.1471 27.104V26.604H93.6471V27.104H94.1471ZM94.1831 36.032L93.6846 36.0703L93.6863 36.0924L93.6899 36.1142L94.1831 36.032ZM94.5791 36.788L94.2255 37.1416L94.2348 37.1509L94.2446 37.1596L94.5791 36.788ZM95.6591 37.112V37.6122L95.6722 37.6118L95.6591 37.112ZM98.3951 37.04L98.8943 37.012L98.8671 36.5274L98.3819 36.5402L98.3951 37.04ZM98.6111 40.892L98.7203 41.3799L99.134 41.2873L99.1103 40.864L98.6111 40.892ZM90.5111 39.992L90.1216 40.3055L90.1254 40.3102L90.5111 39.992ZM89.3231 27.104H89.8231V26.604H89.3231V27.104ZM87.1991 27.104H86.6991V27.604H87.1991V27.104ZM87.1991 23V22.5H86.6991V23H87.1991ZM89.3231 23V23.5H89.8231V23H89.3231ZM89.3231 17.996V17.496H88.8231V17.996H89.3231ZM94.1471 17.996H94.6471V17.496H94.1471V17.996ZM94.1471 23H93.6471V23.5H94.1471V23ZM98.5751 23H99.0751V22.5H98.5751V23ZM98.5751 26.604H94.1471V27.604H98.5751V26.604ZM93.6471 27.104V34.484H94.6471V27.104H93.6471ZM93.6471 34.484C93.6471 35.2047 93.659 35.7375 93.6846 36.0703L94.6816 35.9937C94.6592 35.7025 94.6471 35.2033 94.6471 34.484H93.6471ZM93.6899 36.1142C93.7559 36.5099 93.9395 36.8555 94.2255 37.1416L94.9326 36.4344C94.7867 36.2885 94.7063 36.1301 94.6763 35.9498L93.6899 36.1142ZM94.2446 37.1596C94.6123 37.4906 95.1143 37.612 95.6591 37.612V36.612C95.2439 36.612 95.0259 36.5174 94.9136 36.4164L94.2446 37.1596ZM95.6722 37.6118L98.4082 37.5398L98.3819 36.5402L95.6459 36.6122L95.6722 37.6118ZM97.8959 37.068L98.1119 40.92L99.1103 40.864L98.8943 37.012L97.8959 37.068ZM98.5019 40.4041C96.9024 40.7622 95.7222 40.932 94.9391 40.932V41.932C95.836 41.932 97.1038 41.7418 98.7203 41.3799L98.5019 40.4041ZM94.9391 40.932C92.8233 40.932 91.5427 40.4568 90.8968 39.6738L90.1254 40.3102C91.0635 41.4472 92.7349 41.932 94.9391 41.932V40.932ZM90.9006 39.6785C90.2248 38.8388 89.8231 37.1952 89.8231 34.592H88.8231C88.8231 37.2208 89.2134 39.1772 90.1216 40.3055L90.9006 39.6785ZM89.8231 34.592V27.104H88.8231V34.592H89.8231ZM89.3231 26.604H87.1991V27.604H89.3231V26.604ZM87.6991 27.104V23H86.6991V27.104H87.6991ZM87.1991 23.5H89.3231V22.5H87.1991V23.5ZM89.8231 23V17.996H88.8231V23H89.8231ZM89.3231 18.496H94.1471V17.496H89.3231V18.496ZM93.6471 17.996V23H94.6471V17.996H93.6471ZM94.1471 23.5H98.5751V22.5H94.1471V23.5ZM98.0751 23V27.104H99.0751V23H98.0751ZM102.688 25.052L103.083 25.3594L103.085 25.3566L102.688 25.052ZM115.432 25.052L115.036 25.3566L115.038 25.3594L115.432 25.052ZM106.396 36.032L105.959 36.2749L105.964 36.2839L106.396 36.032ZM111.688 36.032L111.256 35.78L111.251 35.7892L111.688 36.032ZM111.688 27.932L111.254 28.1801L111.26 28.1892L111.688 27.932ZM106.396 27.932L105.968 27.6747L105.962 27.6839L106.396 27.932ZM103.085 25.3566C104.227 23.8701 106.17 23.068 109.06 23.068V22.068C105.999 22.068 103.694 22.9219 102.292 24.7474L103.085 25.3566ZM109.06 23.068C111.951 23.068 113.894 23.8701 115.036 25.3566L115.829 24.7474C114.427 22.9219 112.122 22.068 109.06 22.068V23.068ZM115.038 25.3594C116.217 26.8723 116.84 29.052 116.84 31.964H117.84C117.84 28.924 117.192 26.4957 115.827 24.7446L115.038 25.3594ZM116.84 31.964C116.84 35.0582 116.162 37.2854 114.894 38.7358C113.637 40.1735 111.725 40.932 109.06 40.932V41.932C111.916 41.932 114.144 41.1125 115.647 39.3942C117.138 37.6886 117.84 35.1818 117.84 31.964H116.84ZM109.06 40.932C106.396 40.932 104.484 40.1735 103.227 38.7358C101.958 37.2854 101.28 35.0582 101.28 31.964H100.28C100.28 35.1818 100.982 37.6886 102.474 39.3942C103.977 41.1125 106.205 41.932 109.06 41.932V40.932ZM101.28 31.964C101.28 29.052 101.904 26.8723 103.083 25.3594L102.294 24.7446C100.929 26.4957 100.28 28.924 100.28 31.964H101.28ZM105.964 36.2839C106.583 37.3443 107.666 37.828 109.06 37.828V36.828C107.91 36.828 107.218 36.4477 106.828 35.7801L105.964 36.2839ZM109.06 37.828C110.453 37.828 111.531 37.3442 112.125 36.2748L111.251 35.7892C110.885 36.4478 110.211 36.828 109.06 36.828V37.828ZM112.12 36.2839C112.693 35.3027 112.944 33.8369 112.944 31.964H111.944C111.944 33.7871 111.692 35.0333 111.256 35.7801L112.12 36.2839ZM112.944 31.964C112.944 30.093 112.693 28.635 112.117 27.6748L111.26 28.1892C111.691 28.909 111.944 30.139 111.944 31.964H112.944ZM112.122 27.6839C111.525 26.6391 110.447 26.172 109.06 26.172V27.172C110.218 27.172 110.891 27.5449 111.254 28.1801L112.122 27.6839ZM109.06 26.172C107.673 26.172 106.589 26.6391 105.968 27.6748L106.825 28.1892C107.212 27.5449 107.904 27.172 109.06 27.172V26.172ZM105.962 27.6839C105.415 28.6413 105.176 30.095 105.176 31.964H106.176C106.176 30.137 106.418 28.9027 106.83 28.1801L105.962 27.6839ZM105.176 31.964C105.176 33.8349 105.416 35.2965 105.959 36.2748L106.833 35.7892C106.417 35.0395 106.176 33.7891 106.176 31.964H105.176ZM120.877 48.56H120.377V49.06H120.877V48.56ZM120.877 23V22.5H120.377V23H120.877ZM125.665 23H126.165V22.5H125.665V23ZM125.665 23.972H125.165V24.8551L125.922 24.4007L125.665 23.972ZM135.133 24.764L134.74 25.0732L134.742 25.0763L135.133 24.764ZM134.953 39.416L135.316 39.7597L135.319 39.7565L134.953 39.416ZM126.133 41.216L126.05 41.7092L126.055 41.7099L126.133 41.216ZM125.701 41.144L125.783 40.6508L125.201 40.5538V41.144H125.701ZM125.701 48.56V49.06H126.201V48.56H125.701ZM126.133 27.428L125.949 26.9628L125.94 26.9665L126.133 27.428ZM125.701 27.608L125.508 27.1465L125.201 27.2747V27.608H125.701ZM125.701 37.04H125.201V37.4778L125.634 37.5356L125.701 37.04ZM131.173 36.032L130.753 35.7603L130.747 35.7693L131.173 36.032ZM121.377 48.56V23H120.377V48.56H121.377ZM120.877 23.5H125.665V22.5H120.877V23.5ZM125.165 23V23.972H126.165V23H125.165ZM125.922 24.4007C127.443 23.488 128.72 23.068 129.769 23.068V22.068C128.465 22.068 127.006 22.584 125.407 23.5433L125.922 24.4007ZM129.769 23.068C132.089 23.068 133.71 23.7642 134.74 25.0732L135.525 24.4548C134.251 22.8358 132.296 22.068 129.769 22.068V23.068ZM134.742 25.0763C135.783 26.3776 136.361 28.6902 136.361 32.144H137.361C137.361 28.6378 136.786 26.0304 135.523 24.4517L134.742 25.0763ZM136.361 32.144C136.361 35.5946 135.724 37.8525 134.586 39.0755L135.319 39.7565C136.725 38.2435 137.361 35.6534 137.361 32.144H136.361ZM134.589 39.0723C133.454 40.272 131.532 40.932 128.689 40.932V41.932C131.653 41.932 133.907 41.248 135.316 39.7597L134.589 39.0723ZM128.689 40.932C127.927 40.932 127.101 40.8627 126.211 40.7221L126.055 41.7099C126.988 41.8573 127.867 41.932 128.689 41.932V40.932ZM126.215 40.7228L125.783 40.6508L125.618 41.6372L126.05 41.7092L126.215 40.7228ZM125.201 41.144V48.56H126.201V41.144H125.201ZM125.701 48.06H120.877V49.06H125.701V48.06ZM128.833 26.388C127.875 26.388 126.913 26.5823 125.949 26.9629L126.316 27.8931C127.176 27.5537 128.014 27.388 128.833 27.388V26.388ZM125.94 26.9665L125.508 27.1465L125.893 28.0695L126.325 27.8895L125.94 26.9665ZM125.201 27.608V37.04H126.201V27.608H125.201ZM125.634 37.5356C126.725 37.681 127.625 37.756 128.329 37.756V36.756C127.688 36.756 126.836 36.687 125.767 36.5444L125.634 37.5356ZM128.329 37.756C129.809 37.756 130.966 37.3185 131.598 36.2947L130.747 35.7693C130.371 36.3775 129.632 36.756 128.329 36.756V37.756ZM131.592 36.3036C132.204 35.3584 132.465 33.8395 132.465 31.856H131.465C131.465 33.8085 131.197 35.0736 130.753 35.7604L131.592 36.3036ZM132.465 31.856C132.465 30.1636 132.201 28.8091 131.604 27.8633C130.984 26.8788 130.034 26.388 128.833 26.388V27.388C129.719 27.388 130.335 27.7252 130.759 28.3966C131.206 29.1069 131.465 30.2364 131.465 31.856H132.465ZM146.605 20.912H146.105V21.412H146.605V20.912ZM146.605 16.52V16.02H146.105V16.52H146.605ZM164.605 16.52H165.105V16.02H164.605V16.52ZM164.605 20.912V21.412H165.105V20.912H164.605ZM158.125 20.912V20.412H157.625V20.912H158.125ZM158.125 41V41.5H158.625V41H158.125ZM153.157 41H152.657V41.5H153.157V41ZM153.157 20.912H153.657V20.412H153.157V20.912ZM147.105 20.912V16.52H146.105V20.912H147.105ZM146.605 17.02H164.605V16.02H146.605V17.02ZM164.105 16.52V20.912H165.105V16.52H164.105ZM164.605 20.412H158.125V21.412H164.605V20.412ZM157.625 20.912V41H158.625V20.912H157.625ZM158.125 40.5H153.157V41.5H158.125V40.5ZM153.657 41V20.912H152.657V41H153.657ZM153.157 20.412H146.605V21.412H153.157V20.412ZM165.455 41H164.955V41.5H165.455V41ZM165.455 23V22.5H164.955V23H165.455ZM170.243 23H170.743V22.5H170.243V23ZM170.243 24.908H169.743V25.7875L170.498 25.3376L170.243 24.908ZM176.003 22.568H176.503V21.9597L175.906 22.0775L176.003 22.568ZM176.003 27.428L176.105 27.9173L176.503 27.834V27.428H176.003ZM170.999 28.688L170.85 28.2105L170.842 28.2131L170.833 28.2161L170.999 28.688ZM170.279 28.94L170.113 28.4681L169.779 28.5853V28.94H170.279ZM170.279 41V41.5H170.779V41H170.279ZM165.955 41V23H164.955V41H165.955ZM165.455 23.5H170.243V22.5H165.455V23.5ZM169.743 23V24.908H170.743V23H169.743ZM170.498 25.3376C172.478 24.1596 174.344 23.405 176.099 23.0585L175.906 22.0775C174.013 22.451 172.04 23.2564 169.987 24.4784L170.498 25.3376ZM175.503 22.568V27.428H176.503V22.568H175.503ZM175.9 26.9387C173.946 27.3488 172.262 27.7725 170.85 28.2105L171.147 29.1655C172.52 28.7395 174.172 28.3232 176.105 27.9173L175.9 26.9387ZM170.833 28.2161L170.113 28.4681L170.444 29.4119L171.164 29.1599L170.833 28.2161ZM169.779 28.94V41H170.779V28.94H169.779ZM170.279 40.5H165.455V41.5H170.279V40.5ZM192.637 36.104H192.137V36.1248L192.139 36.1455L192.637 36.104ZM192.925 37.328L192.496 37.5852L192.503 37.5955L192.509 37.6054L192.925 37.328ZM193.825 37.796L194.325 37.8158L194.342 37.3937L193.928 37.3067L193.825 37.796ZM193.681 41.432V41.932H194.162L194.181 41.4518L193.681 41.432ZM190.729 41.18L190.616 41.6669L190.619 41.6677L190.729 41.18ZM188.533 40.172L188.814 39.758L188.574 39.596L188.315 39.7223L188.533 40.172ZM179.209 31.46L179.514 31.8567L179.519 31.8522L179.209 31.46ZM183.961 30.02L183.995 30.5189L183.998 30.5186L183.961 30.02ZM187.813 29.732L187.85 30.2306L188.313 30.196V29.732H187.813ZM187.309 27.104L186.984 27.4836L186.992 27.4906L187 27.4972L187.309 27.104ZM185.689 26.672V26.172H185.679L185.668 26.1725L185.689 26.672ZM178.921 26.96L178.422 26.9815L178.443 27.4808L178.942 27.4595L178.921 26.96ZM178.777 23.612L178.646 23.1294L178.26 23.234L178.278 23.6335L178.777 23.612ZM191.089 24.008L190.744 24.3701L190.749 24.3741L191.089 24.008ZM184.537 33.368L184.493 32.8699L184.493 32.87L184.537 33.368ZM187.273 37.076L187.144 36.5929L187.144 36.5929L187.273 37.076ZM187.813 36.932L187.942 37.4151L188.313 37.3161V36.932H187.813ZM187.813 33.08H188.313V32.5341L187.769 32.5819L187.813 33.08ZM192.137 28.616V36.104H193.137V28.616H192.137ZM192.139 36.1455C192.188 36.7333 192.29 37.2405 192.496 37.5852L193.354 37.0708C193.273 36.9355 193.182 36.6267 193.135 36.0625L192.139 36.1455ZM192.509 37.6054C192.765 37.9896 193.231 38.1819 193.722 38.2853L193.928 37.3067C193.507 37.2181 193.373 37.0984 193.341 37.0506L192.509 37.6054ZM193.326 37.7762L193.182 41.4122L194.181 41.4518L194.325 37.8158L193.326 37.7762ZM193.681 40.932C192.475 40.932 191.532 40.8487 190.839 40.6923L190.619 41.6677C191.414 41.8473 192.44 41.932 193.681 41.932V40.932ZM190.843 40.6931C190.194 40.5416 189.518 40.2349 188.814 39.758L188.253 40.586C189.037 41.1171 189.825 41.4824 190.616 41.6669L190.843 40.6931ZM188.315 39.7223C186.65 40.5315 184.96 40.932 183.241 40.932V41.932C185.122 41.932 186.96 41.4925 188.752 40.6217L188.315 39.7223ZM183.241 40.932C181.466 40.932 180.224 40.4637 179.42 39.6126C178.61 38.7561 178.161 37.4257 178.161 35.528H177.161C177.161 37.5663 177.642 39.1879 178.693 40.2994C179.748 41.4163 181.297 41.932 183.241 41.932V40.932ZM178.161 35.528C178.161 33.6866 178.655 32.5154 179.514 31.8567L178.905 31.0633C177.699 31.9886 177.161 33.5294 177.161 35.528H178.161ZM179.519 31.8522C180.436 31.1271 181.902 30.66 183.995 30.5189L183.928 29.5211C181.748 29.668 180.046 30.1609 178.899 31.0678L179.519 31.8522ZM183.998 30.5186L187.85 30.2306L187.776 29.2334L183.924 29.5214L183.998 30.5186ZM188.313 29.732V28.616H187.313V29.732H188.313ZM188.313 28.616C188.313 27.8281 188.14 27.1213 187.618 26.7108L187 27.4972C187.15 27.6147 187.313 27.9159 187.313 28.616H188.313ZM187.635 26.7244C187.164 26.3209 186.478 26.172 185.689 26.172V27.172C186.389 27.172 186.783 27.3111 186.984 27.4836L187.635 26.7244ZM185.668 26.1725L178.9 26.4605L178.942 27.4595L185.71 27.1715L185.668 26.1725ZM179.421 26.9385L179.277 23.5905L178.278 23.6335L178.422 26.9815L179.421 26.9385ZM178.908 24.0946C181.44 23.4084 183.832 23.068 186.085 23.068V22.068C183.731 22.068 181.251 22.4236 178.646 23.1294L178.908 24.0946ZM186.085 23.068C188.366 23.068 189.875 23.542 190.744 24.3701L191.434 23.6459C190.288 22.554 188.461 22.068 186.085 22.068V23.068ZM190.749 24.3741C191.637 25.2009 192.137 26.5737 192.137 28.616H193.137C193.137 26.4343 192.605 24.7351 191.43 23.6419L190.749 24.3741ZM184.493 32.87C183.744 32.9369 183.106 33.1781 182.66 33.6568C182.211 34.1372 182.021 34.7853 182.021 35.528H183.021C183.021 34.9507 183.167 34.5788 183.391 34.3392C183.616 34.0979 183.987 33.9191 184.582 33.866L184.493 32.87ZM182.021 35.528C182.021 36.2518 182.181 36.888 182.589 37.3456C183.006 37.8143 183.604 38.008 184.285 38.008V37.008C183.79 37.008 183.506 36.8717 183.336 36.6804C183.155 36.478 183.021 36.1242 183.021 35.528H182.021ZM184.285 38.008C185.249 38.008 186.289 37.8559 187.402 37.5591L187.144 36.5929C186.097 36.8721 185.145 37.008 184.285 37.008V38.008ZM187.402 37.5591L187.942 37.4151L187.684 36.4489L187.144 36.5929L187.402 37.5591ZM188.313 36.932V33.08H187.313V36.932H188.313ZM187.769 32.5819L184.493 32.8699L184.581 33.8661L187.857 33.5781L187.769 32.5819ZM208.756 23.144L208.864 22.6558L208.853 22.6535L208.756 23.144ZM209.728 23.36L210.228 23.3789L210.243 22.9623L209.836 22.8719L209.728 23.36ZM209.584 27.176L209.534 27.6735L210.063 27.7271L210.084 27.1949L209.584 27.176ZM202.06 27.968L201.663 27.6638L201.662 27.6658L202.06 27.968ZM202.06 36.032L201.652 36.3214L201.657 36.3289L201.663 36.3362L202.06 36.032ZM205.408 37.112V37.612H205.425L205.442 37.6108L205.408 37.112ZM209.584 36.824L210.084 36.8053L210.064 36.2897L209.55 36.3252L209.584 36.824ZM209.728 40.676L209.824 41.1666L210.244 41.0843L210.228 40.6573L209.728 40.676ZM198.1 39.2L197.702 39.5031L197.708 39.51L198.1 39.2ZM198.172 24.8L198.559 25.117L198.561 25.1139L198.172 24.8ZM203.968 23.068C205.17 23.068 206.731 23.2536 208.659 23.6345L208.853 22.6535C206.893 22.2664 205.262 22.068 203.968 22.068V23.068ZM208.647 23.6321L209.619 23.8481L209.836 22.8719L208.864 22.6559L208.647 23.6321ZM209.228 23.3411L209.084 27.1571L210.084 27.1949L210.228 23.3789L209.228 23.3411ZM209.634 26.6785C207.735 26.4863 206.311 26.388 205.372 26.388V27.388C206.257 27.388 207.64 27.4817 209.534 27.6735L209.634 26.6785ZM205.372 26.388C203.682 26.388 202.365 26.7484 201.663 27.6638L202.457 28.2722C202.859 27.7476 203.75 27.388 205.372 27.388V26.388ZM201.662 27.6658C201.333 28.0986 201.115 28.6885 200.975 29.3918C200.835 30.1005 200.768 30.9605 200.768 31.964H201.768C201.768 30.9995 201.833 30.2095 201.956 29.5862C202.081 28.9575 202.259 28.5334 202.458 28.2702L201.662 27.6658ZM200.768 31.964C200.768 33.9397 201.026 35.4387 201.652 36.3214L202.468 35.7426C202.038 35.1373 201.768 33.9243 201.768 31.964H200.768ZM201.663 36.3362C202.366 37.2529 203.697 37.612 205.408 37.612V36.612C203.759 36.612 202.858 36.2511 202.457 35.7278L201.663 36.3362ZM205.442 37.6108L209.618 37.3228L209.55 36.3252L205.374 36.6132L205.442 37.6108ZM209.084 36.8427L209.228 40.6947L210.228 40.6573L210.084 36.8053L209.084 36.8427ZM209.632 40.1854C207.072 40.6878 205.154 40.932 203.86 40.932V41.932C205.254 41.932 207.248 41.6722 209.824 41.1666L209.632 40.1854ZM203.86 40.932C201.284 40.932 199.539 40.2148 198.492 38.89L197.708 39.51C199.013 41.1612 201.108 41.932 203.86 41.932V40.932ZM198.498 38.897C197.446 37.5161 196.872 35.2392 196.872 31.964H195.872C195.872 35.3128 196.45 37.8599 197.702 39.503L198.498 38.897ZM196.872 31.964C196.872 28.6896 197.469 26.4457 198.559 25.117L197.785 24.483C196.474 26.0823 195.872 28.6144 195.872 31.964H196.872ZM198.561 25.1139C199.633 23.785 201.392 23.068 203.968 23.068V22.068C201.215 22.068 199.111 22.839 197.783 24.4861L198.561 25.1139ZM218.126 41V41.5H218.626V41H218.126ZM213.302 41H212.802V41.5H213.302V41ZM213.302 15.8V15.3H212.802V15.8H213.302ZM218.126 15.8H218.626V15.3H218.126V15.8ZM218.126 30.128H217.626V30.724L218.213 30.6204L218.126 30.128ZM219.962 29.804L220.049 30.2964L220.291 30.2537L220.405 30.036L219.962 29.804ZM223.526 23V22.5H223.224L223.083 22.768L223.526 23ZM228.926 23L229.365 23.2405L229.771 22.5H228.926V23ZM224.246 31.532L223.808 31.2915L223.679 31.5259L223.803 31.763L224.246 31.532ZM229.178 41V41.5H230.003L229.622 40.769L229.178 41ZM223.742 41L223.298 41.23L223.438 41.5H223.742V41ZM220.106 33.98L220.55 33.75L220.383 33.428L220.026 33.4866L220.106 33.98ZM218.126 34.304L218.046 33.8106L217.626 33.8792V34.304H218.126ZM218.126 40.5H213.302V41.5H218.126V40.5ZM213.802 41V15.8H212.802V41H213.802ZM213.302 16.3H218.126V15.3H213.302V16.3ZM217.626 15.8V30.128H218.626V15.8H217.626ZM218.213 30.6204L220.049 30.2964L219.875 29.3116L218.039 29.6356L218.213 30.6204ZM220.405 30.036L223.969 23.232L223.083 22.768L219.519 29.572L220.405 30.036ZM223.526 23.5H228.926V22.5H223.526V23.5ZM228.488 22.7595L223.808 31.2915L224.685 31.7725L229.365 23.2405L228.488 22.7595ZM223.803 31.763L228.735 41.231L229.622 40.769L224.69 31.301L223.803 31.763ZM229.178 40.5H223.742V41.5H229.178V40.5ZM224.186 40.77L220.55 33.75L219.662 34.21L223.298 41.23L224.186 40.77ZM220.026 33.4866L218.046 33.8106L218.207 34.7974L220.187 34.4734L220.026 33.4866ZM217.626 34.304V41H218.626V34.304H217.626ZM235.473 34.052V33.552H234.962L234.973 34.0629L235.473 34.052ZM236.337 36.464L236 36.8332L236.008 36.8409L236.017 36.8481L236.337 36.464ZM244.761 36.968L244.802 37.4665L244.815 37.4652L244.761 36.968ZM245.769 36.86L246.269 36.8499L246.258 36.3048L245.716 36.3628L245.769 36.86ZM245.841 40.424L245.96 40.9098L246.349 40.8149L246.341 40.4139L245.841 40.424ZM232.449 39.272L232.068 39.5958L232.449 39.272ZM246.417 30.704L246.914 30.7575L246.917 30.7308V30.704H246.417ZM246.057 34.052V34.552H246.506L246.554 34.1055L246.057 34.052ZM241.665 30.38V30.88H242.165V30.38H241.665ZM240.981 27.392L240.589 27.7024L240.596 27.7104L240.981 27.392ZM236.157 27.428L235.767 27.1156L235.765 27.1176L236.157 27.428ZM235.437 30.38L234.937 30.3714L234.929 30.88H235.437V30.38ZM234.973 34.0629C234.999 35.2382 235.307 36.2007 236 36.8332L236.674 36.0948C236.263 35.7193 235.996 35.0738 235.973 34.0411L234.973 34.0629ZM236.017 36.8481C236.714 37.4285 237.659 37.684 238.785 37.684V36.684C237.799 36.684 237.113 36.4595 236.657 36.0799L236.017 36.8481ZM238.785 37.684C241.027 37.684 243.034 37.6117 244.802 37.4663L244.72 36.4697C242.985 36.6123 241.007 36.684 238.785 36.684V37.684ZM244.815 37.4652L245.823 37.3572L245.716 36.3628L244.708 36.4708L244.815 37.4652ZM245.269 36.8701L245.341 40.4341L246.341 40.4139L246.269 36.8499L245.269 36.8701ZM245.723 39.9382C242.992 40.6032 240.536 40.932 238.353 40.932V41.932C240.634 41.932 243.171 41.5888 245.96 40.9098L245.723 39.9382ZM238.353 40.932C235.722 40.932 233.924 40.2344 232.83 38.9482L232.068 39.5958C233.423 41.1896 235.56 41.932 238.353 41.932V40.932ZM232.83 38.9482C231.722 37.6438 231.113 35.4507 231.113 32.252H230.113C230.113 35.5333 230.729 38.0202 232.068 39.5958L232.83 38.9482ZM231.113 32.252C231.113 29.0798 231.767 26.7936 232.989 25.3064C234.195 23.838 236.023 23.068 238.569 23.068V22.068C235.811 22.068 233.662 22.912 232.216 24.6716C230.786 26.4124 230.113 28.9682 230.113 32.252H231.113ZM238.569 23.068C241.104 23.068 242.913 23.7238 244.095 24.9491C245.281 26.1778 245.917 28.0647 245.917 30.704H246.917C246.917 27.9193 246.246 25.7382 244.815 24.2549C243.381 22.7682 241.267 22.068 238.569 22.068V23.068ZM245.92 30.6505L245.56 33.9985L246.554 34.1055L246.914 30.7575L245.92 30.6505ZM246.057 33.552H235.473V34.552H246.057V33.552ZM242.165 30.38C242.165 28.9229 241.942 27.7697 241.367 27.0736L240.596 27.7104C240.933 28.1183 241.165 28.9571 241.165 30.38H242.165ZM241.373 27.0816C240.779 26.3309 239.787 26.028 238.569 26.028V27.028C239.656 27.028 240.272 27.3011 240.589 27.7024L241.373 27.0816ZM238.569 26.028C237.363 26.028 236.38 26.3496 235.767 27.1157L236.548 27.7403C236.895 27.3064 237.52 27.028 238.569 27.028V26.028ZM235.765 27.1176C235.203 27.8282 234.962 28.9542 234.937 30.3714L235.937 30.3886C235.961 29.0218 236.2 28.1798 236.549 27.7384L235.765 27.1176ZM235.437 30.88H241.665V29.88H235.437V30.88ZM249.865 41H249.365V41.5H249.865V41ZM249.865 23V22.5H249.365V23H249.865ZM254.653 23H255.153V22.5H254.653V23ZM254.653 24.908H254.153V25.7875L254.909 25.3376L254.653 24.908ZM260.413 22.568H260.913V21.9597L260.316 22.0775L260.413 22.568ZM260.413 27.428L260.516 27.9173L260.913 27.834V27.428H260.413ZM255.409 28.688L255.261 28.2105L255.252 28.2131L255.244 28.2161L255.409 28.688ZM254.689 28.94L254.524 28.4681L254.189 28.5853V28.94H254.689ZM254.689 41V41.5H255.189V41H254.689ZM250.365 41V23H249.365V41H250.365ZM249.865 23.5H254.653V22.5H249.865V23.5ZM254.153 23V24.908H255.153V23H254.153ZM254.909 25.3376C256.888 24.1596 258.754 23.405 260.51 23.0585L260.316 22.0775C258.423 22.451 256.45 23.2564 254.397 24.4784L254.909 25.3376ZM259.913 22.568V27.428H260.913V22.568H259.913ZM260.31 26.9387C258.356 27.3488 256.672 27.7725 255.261 28.2105L255.557 29.1655C256.93 28.7395 258.582 28.3232 260.516 27.9173L260.31 26.9387ZM255.244 28.2161L254.524 28.4681L254.854 29.4119L255.574 29.1599L255.244 28.2161ZM254.189 28.94V41H255.189V28.94H254.189ZM254.689 40.5H249.865V41.5H254.689V40.5Z" fill="black" fill-opacity="0.67"/>
</g>
<g clip-path="url(#clip0)">
<path d="M307.408 52.2049L296.041 45.3733L302.871 34.0089C302.939 33.897 302.983 33.7729 303.002 33.6437C303.022 33.5146 303.016 33.3828 302.984 33.2561C302.952 33.1294 302.896 33.0101 302.818 32.9051C302.741 32.8001 302.643 32.7114 302.531 32.6442L294.57 27.8578C294.344 27.7219 294.073 27.6814 293.817 27.7452C293.561 27.8089 293.341 27.9718 293.205 28.1979L286.374 39.5627L275.01 32.7313C274.558 32.4591 273.917 32.6188 273.645 33.0715L268.858 41.0328C268.723 41.259 268.682 41.5298 268.746 41.7858C268.81 42.0417 268.973 42.2619 269.199 42.3981L280.564 49.2295L273.731 60.5961C273.596 60.8224 273.555 61.0931 273.619 61.349C273.683 61.6049 273.845 61.8251 274.071 61.9614L282.032 66.7471C282.144 66.8145 282.269 66.8592 282.398 66.8786C282.527 66.898 282.659 66.8917 282.786 66.8602C282.912 66.8286 283.032 66.7723 283.137 66.6945C283.242 66.6167 283.33 66.519 283.398 66.407L290.23 55.0405L301.597 61.8721C301.832 62.0133 302.102 62.0467 302.35 61.9849C302.598 61.9231 302.821 61.7671 302.962 61.5318L307.749 53.5701C307.884 53.3438 307.925 53.0729 307.861 52.8169C307.797 52.5609 307.634 52.3408 307.408 52.2049V52.2049Z" fill="#B46847"/>
</g>
<defs>
<filter id="filter0_d" x="3.46777" y="15.3" width="257.445" height="34.26" filterUnits="userSpaceOnUse" color-interpolation-filters="sRGB">
<feFlood flood-opacity="0" result="BackgroundImageFix"/>
<feColorMatrix in="SourceAlpha" type="matrix" values="0 0 0 0 0 0 0 0 0 0 0 0 0 0 0 0 0 0 127 0"/>
<feOffset dx="-0.5" dy="0.5"/>
<feColorMatrix type="matrix" values="0 0 0 0 0 0 0 0 0 0 0 0 0 0 0 0 0 0 0.29 0"/>
<feBlend mode="normal" in2="BackgroundImageFix" result="effect1_dropShadow"/>
<feBlend mode="normal" in="SourceGraphic" in2="effect1_dropShadow" result="shape"/>
</filter>
<clipPath id="clip0">
<rect width="50" height="50" fill="white" transform="translate(258 29.0881) rotate(-13.9905)"/>
</clipPath>
</defs>
</svg>
