<svg width="560" height="93" viewBox="0 0 560 93" fill="none" xmlns="http://www.w3.org/2000/svg">
<path d="M50 0C43.7789 0 39.3047 3.29377 36.7206 7.43041C34.4096 11.1299 33.4481 15.421 33.2605 19.1793C26.208 22.6686 18.3954 26.1865 12.1051 29.783C8.80563 31.6695 5.92893 33.5671 3.76351 35.6065C1.59809 37.6454 0.000401833 39.9416 0.000401833 42.6505C0.000401833 43.8032 0.562609 44.7427 1.19624 45.432C1.8308 46.1213 2.59117 46.6566 3.45706 47.1565C5.18861 48.1561 7.37177 48.9893 9.77314 49.71C13.3406 50.7811 17.336 51.5774 20.8099 51.9179C17.3546 57.8751 12.7563 63.3468 8.72545 68.5896C4.06719 74.6487 0.000401833 80.4596 0.000401833 86.9148C0.000401833 87.837 -0.00973602 88.5569 0.0718302 89.2802C0.153627 90.0034 0.361229 90.9062 1.08795 91.6216C1.8149 92.3372 2.70476 92.5294 3.42964 92.6083C4.15452 92.6878 4.8847 92.6784 5.82132 92.6784H31.522C33.3877 92.6784 34.7538 92.7918 36.1591 91.8876C37.5646 90.9839 38.0771 89.7493 39.0784 87.905L39.0987 87.8681L39.1172 87.8298C39.1172 87.8298 41.3575 83.272 44.0305 78.7492C45.3669 76.488 46.8178 74.2361 48.0798 72.6402C48.7111 71.8426 49.3019 71.21 49.7272 70.8526C49.8572 70.7438 49.9161 70.7235 50 70.6774C50.0837 70.7235 50.1429 70.7438 50.2728 70.8526C50.6982 71.21 51.2889 71.8426 51.9203 72.6402C53.1823 74.2361 54.6332 76.488 55.9696 78.7492C58.6423 83.272 60.8829 87.8296 60.8829 87.8296L60.9013 87.8676L60.9216 87.9045C61.923 89.7489 62.4308 90.976 63.8271 91.8823C65.2229 92.7883 66.5861 92.6777 68.4255 92.6777H94.2393C95.161 92.6777 95.8798 92.6876 96.5997 92.6076C97.3192 92.5276 98.2121 92.3286 98.9314 91.6089C99.6503 90.8891 99.8494 89.9958 99.9291 89.2758C100.009 88.556 99.9996 87.8363 99.9996 86.9141C99.9996 80.4589 95.9328 74.648 91.2746 68.5887C87.244 63.3461 82.6456 57.8744 79.1901 51.9169C82.6641 51.5762 86.6594 50.7804 90.2269 49.7093C92.6283 48.9888 94.8114 48.1554 96.543 47.156C97.4089 46.6562 98.1692 46.1209 98.8033 45.4315C99.4377 44.7422 99.9996 43.8027 99.9996 42.65C99.9996 39.9411 98.4019 37.6449 96.2365 35.606C94.0711 33.5666 91.1944 31.669 87.8949 29.7825C81.6046 26.186 73.792 22.6679 66.7395 19.1789C66.552 15.421 65.5902 11.1295 63.2794 7.43041C60.6953 3.29354 56.2212 0 50 0Z" fill="#538C3F"/>
<path d="M165 0C158.779 0 154.305 3.29377 151.721 7.43041C149.41 11.1299 148.448 15.421 148.261 19.1793C141.208 22.6686 133.395 26.1865 127.105 29.783C123.806 31.6695 120.929 33.5671 118.764 35.6065C116.598 37.6454 115 39.9416 115 42.6505C115 43.8032 115.563 44.7427 116.196 45.432C116.831 46.1213 117.591 46.6566 118.457 47.1565C120.189 48.1561 122.372 48.9893 124.773 49.71C128.341 50.7811 132.336 51.5774 135.81 51.9179C132.355 57.8751 127.756 63.3468 123.725 68.5896C119.067 74.6487 115 80.4596 115 86.9148C115 87.837 114.99 88.5569 115.072 89.2802C115.154 90.0034 115.361 90.9062 116.088 91.6216C116.815 92.3372 117.705 92.5294 118.43 92.6083C119.155 92.6878 119.885 92.6784 120.821 92.6784H146.522C148.388 92.6784 149.754 92.7918 151.159 91.8876C152.565 90.9839 153.077 89.7493 154.078 87.905L154.099 87.8681L154.117 87.8298C154.117 87.8298 156.357 83.272 159.03 78.7492C160.367 76.488 161.818 74.2361 163.08 72.6402C163.711 71.8426 164.302 71.21 164.727 70.8526C164.857 70.7438 164.916 70.7235 165 70.6774C165.084 70.7235 165.143 70.7438 165.273 70.8526C165.698 71.21 166.289 71.8426 166.92 72.6402C168.182 74.2361 169.633 76.488 170.97 78.7492C173.642 83.272 175.883 87.8296 175.883 87.8296L175.901 87.8676L175.922 87.9045C176.923 89.7489 177.431 90.976 178.827 91.8823C180.223 92.7883 181.586 92.6777 183.425 92.6777H209.239C210.161 92.6777 210.88 92.6876 211.6 92.6076C212.319 92.5276 213.212 92.3286 213.931 91.6089C214.65 90.8891 214.849 89.9958 214.929 89.2758C215.009 88.556 215 87.8363 215 86.9141C215 80.4589 210.933 74.648 206.275 68.5887C202.244 63.3461 197.646 57.8744 194.19 51.9169C197.664 51.5762 201.659 50.7804 205.227 49.7093C207.628 48.9888 209.811 48.1554 211.543 47.156C212.409 46.6562 213.169 46.1209 213.803 45.4315C214.438 44.7422 215 43.8027 215 42.65C215 39.9411 213.402 37.6449 211.237 35.606C209.071 33.5666 206.194 31.669 202.895 29.7825C196.605 26.186 188.792 22.6679 181.74 19.1789C181.552 15.421 180.59 11.1295 178.279 7.43041C175.695 3.29354 171.221 0 165 0Z" fill="#538C3F"/>
<path d="M395 0C388.779 0 384.305 3.29377 381.721 7.43041C379.41 11.1299 378.448 15.421 378.261 19.1793C371.208 22.6686 363.395 26.1865 357.105 29.783C353.806 31.6695 350.929 33.5671 348.764 35.6065C346.598 37.6454 345 39.9416 345 42.6505C345 43.8032 345.563 44.7427 346.196 45.432C346.831 46.1213 347.591 46.6566 348.457 47.1565C350.189 48.1561 352.372 48.9893 354.773 49.71C358.341 50.7811 362.336 51.5774 365.81 51.9179C362.355 57.8751 357.756 63.3468 353.725 68.5896C349.067 74.6487 345 80.4596 345 86.9148C345 87.837 344.99 88.5569 345.072 89.2802C345.154 90.0034 345.361 90.9062 346.088 91.6216C346.815 92.3372 347.705 92.5294 348.43 92.6083C349.155 92.6878 349.885 92.6784 350.821 92.6784H376.522C378.388 92.6784 379.754 92.7918 381.159 91.8876C382.565 90.9839 383.077 89.7493 384.078 87.905L384.099 87.8681L384.117 87.8298C384.117 87.8298 386.357 83.272 389.03 78.7492C390.367 76.488 391.818 74.2361 393.08 72.6402C393.711 71.8426 394.302 71.21 394.727 70.8526C394.857 70.7438 394.916 70.7235 395 70.6774C395.084 70.7235 395.143 70.7438 395.273 70.8526C395.698 71.21 396.289 71.8426 396.92 72.6402C398.182 74.2361 399.633 76.488 400.97 78.7492C403.642 83.272 405.883 87.8296 405.883 87.8296L405.901 87.8676L405.922 87.9045C406.923 89.7489 407.431 90.976 408.827 91.8823C410.223 92.7883 411.586 92.6777 413.425 92.6777H439.239C440.161 92.6777 440.88 92.6876 441.6 92.6076C442.319 92.5276 443.212 92.3286 443.931 91.6089C444.65 90.8891 444.849 89.9958 444.929 89.2758C445.009 88.556 445 87.8363 445 86.9141C445 80.4589 440.933 74.648 436.275 68.5887C432.244 63.3461 427.646 57.8744 424.19 51.9169C427.664 51.5762 431.659 50.7804 435.227 49.7093C437.628 48.9888 439.811 48.1554 441.543 47.156C442.409 46.6562 443.169 46.1209 443.803 45.4315C444.438 44.7422 445 43.8027 445 42.65C445 39.9411 443.402 37.6449 441.237 35.606C439.071 33.5666 436.194 31.669 432.895 29.7825C426.605 26.186 418.792 22.6679 411.74 19.1789C411.552 15.421 410.59 11.1295 408.279 7.43041C405.695 3.29354 401.221 0 395 0Z" fill="#538C3F"/>
<path d="M280 0C273.779 0 269.305 3.29377 266.721 7.43041C264.41 11.1299 263.448 15.421 263.261 19.1793C256.208 22.6686 248.395 26.1865 242.105 29.783C238.806 31.6695 235.929 33.5671 233.764 35.6065C231.598 37.6454 230 39.9416 230 42.6505C230 43.8032 230.563 44.7427 231.196 45.432C231.831 46.1213 232.591 46.6566 233.457 47.1565C235.189 48.1561 237.372 48.9893 239.773 49.71C243.341 50.7811 247.336 51.5774 250.81 51.9179C247.355 57.8751 242.756 63.3468 238.725 68.5896C234.067 74.6487 230 80.4596 230 86.9148C230 87.837 229.99 88.5569 230.072 89.2802C230.154 90.0034 230.361 90.9062 231.088 91.6216C231.815 92.3372 232.705 92.5294 233.43 92.6083C234.155 92.6878 234.885 92.6784 235.821 92.6784H261.522C263.388 92.6784 264.754 92.7918 266.159 91.8876C267.565 90.9839 268.077 89.7493 269.078 87.905L269.099 87.8681L269.117 87.8298C269.117 87.8298 271.357 83.272 274.03 78.7492C275.367 76.488 276.818 74.2361 278.08 72.6402C278.711 71.8426 279.302 71.21 279.727 70.8526C279.857 70.7438 279.916 70.7235 280 70.6774C280.084 70.7235 280.143 70.7438 280.273 70.8526C280.698 71.21 281.289 71.8426 281.92 72.6402C283.182 74.2361 284.633 76.488 285.97 78.7492C288.642 83.272 290.883 87.8296 290.883 87.8296L290.901 87.8676L290.922 87.9045C291.923 89.7489 292.431 90.976 293.827 91.8823C295.223 92.7883 296.586 92.6777 298.425 92.6777H324.239C325.161 92.6777 325.88 92.6876 326.6 92.6076C327.319 92.5276 328.212 92.3286 328.931 91.6089C329.65 90.8891 329.849 89.9958 329.929 89.2758C330.009 88.556 330 87.8363 330 86.9141C330 80.4589 325.933 74.648 321.275 68.5887C317.244 63.3461 312.646 57.8744 309.19 51.9169C312.664 51.5762 316.659 50.7804 320.227 49.7093C322.628 48.9888 324.811 48.1554 326.543 47.156C327.409 46.6562 328.169 46.1209 328.803 45.4315C329.438 44.7422 330 43.8027 330 42.65C330 39.9411 328.402 37.6449 326.237 35.606C324.071 33.5666 321.194 31.669 317.895 29.7825C311.605 26.186 303.792 22.6679 296.74 19.1789C296.552 15.421 295.59 11.1295 293.279 7.43041C290.695 3.29354 286.221 0 280 0Z" fill="#538C3F"/>
<path d="M510 0C503.779 0 499.305 3.29377 496.721 7.43041C494.41 11.1299 493.448 15.421 493.261 19.1793C486.208 22.6686 478.395 26.1865 472.105 29.783C468.806 31.6695 465.929 33.5671 463.764 35.6065C461.598 37.6454 460 39.9416 460 42.6505C460 43.8032 460.563 44.7427 461.196 45.432C461.831 46.1213 462.591 46.6566 463.457 47.1565C465.189 48.1561 467.372 48.9893 469.773 49.71C473.341 50.7811 477.336 51.5774 480.81 51.9179C477.355 57.8751 472.756 63.3468 468.725 68.5896C464.067 74.6487 460 80.4596 460 86.9148C460 87.837 459.99 88.5569 460.072 89.2802C460.154 90.0034 460.361 90.9062 461.088 91.6216C461.815 92.3372 462.705 92.5294 463.43 92.6083C464.155 92.6878 464.885 92.6784 465.821 92.6784H491.522C493.388 92.6784 494.754 92.7918 496.159 91.8876C497.565 90.9839 498.077 89.7493 499.078 87.905L499.099 87.8681L499.117 87.8298C499.117 87.8298 501.357 83.272 504.03 78.7492C505.367 76.488 506.818 74.2361 508.08 72.6402C508.711 71.8426 509.302 71.21 509.727 70.8526C509.857 70.7438 509.916 70.7235 510 70.6774C510.084 70.7235 510.143 70.7438 510.273 70.8526C510.698 71.21 511.289 71.8426 511.92 72.6402C513.182 74.2361 514.633 76.488 515.97 78.7492C518.642 83.272 520.883 87.8296 520.883 87.8296L520.901 87.8676L520.922 87.9045C521.923 89.7489 522.431 90.976 523.827 91.8823C525.223 92.7883 526.586 92.6777 528.425 92.6777H554.239C555.161 92.6777 555.88 92.6876 556.6 92.6076C557.319 92.5276 558.212 92.3286 558.931 91.6089C559.65 90.8891 559.849 89.9958 559.929 89.2758C560.009 88.556 560 87.8363 560 86.9141C560 80.4589 555.933 74.648 551.275 68.5887C547.244 63.3461 542.646 57.8744 539.19 51.9169C542.664 51.5762 546.659 50.7804 550.227 49.7093C552.628 48.9888 554.811 48.1554 556.543 47.156C557.409 46.6562 558.169 46.1209 558.803 45.4315C559.438 44.7422 560 43.8027 560 42.65C560 39.9411 558.402 37.6449 556.237 35.606C554.071 33.5666 551.194 31.669 547.895 29.7825C541.605 26.186 533.792 22.6679 526.74 19.1789C526.552 15.421 525.59 11.1295 523.279 7.43041C520.695 3.29354 516.221 0 510 0Z" fill="#538C3F"/>
</svg>
