<svg width="301" height="80" viewBox="0 0 301 80" fill="none" xmlns="http://www.w3.org/2000/svg">
<path d="M3 70C110.5 29 160.5 106 282 52.5" stroke="#F0B214" stroke-width="15" stroke-dasharray="20 7"/>
<path d="M6.468 20.912V16.52H24.468V20.912H17.988V41H13.02V20.912H6.468ZM38.3677 28.616V36.104C38.4157 36.68 38.5117 37.088 38.6557 37.328C38.7997 37.544 39.0997 37.7 39.5557 37.796L39.4117 41.432C38.1877 41.432 37.2037 41.348 36.4597 41.18C35.7397 41.012 35.0077 40.676 34.2637 40.172C32.5357 41.012 30.7717 41.432 28.9717 41.432C25.2517 41.432 23.3917 39.464 23.3917 35.528C23.3917 33.608 23.9077 32.252 24.9397 31.46C25.9717 30.644 27.5557 30.164 29.6917 30.02L33.5437 29.732V28.616C33.5437 27.872 33.3757 27.368 33.0397 27.104C32.7037 26.816 32.1637 26.672 31.4197 26.672L24.6517 26.96L24.5077 23.612C27.0757 22.916 29.5117 22.568 31.8157 22.568C34.1437 22.568 35.8117 23.048 36.8197 24.008C37.8517 24.968 38.3677 26.504 38.3677 28.616ZM30.2677 33.368C28.9237 33.488 28.2517 34.208 28.2517 35.528C28.2517 36.848 28.8397 37.508 30.0157 37.508C30.9277 37.508 31.9237 37.364 33.0037 37.076L33.5437 36.932V33.08L30.2677 33.368ZM51.6784 22.568C54.1984 22.568 56.0344 23.264 57.1864 24.656C58.3624 26.024 58.9504 28.484 58.9504 32.036C58.9504 35.588 58.2784 38.048 56.9344 39.416C55.5904 40.76 53.2744 41.432 49.9864 41.432C48.9544 41.432 47.0704 41.312 44.3344 41.072L42.9664 40.928V15.8H47.7904V23.54C49.3264 22.892 50.6224 22.568 51.6784 22.568ZM49.9864 37.112C51.5944 37.112 52.6744 36.728 53.2264 35.96C53.7784 35.168 54.0544 33.764 54.0544 31.748C54.0544 28.508 53.0464 26.888 51.0304 26.888C50.0704 26.888 49.1584 27.008 48.2944 27.248L47.7904 27.356V36.968C48.8944 37.064 49.6264 37.112 49.9864 37.112ZM62.7644 41V15.8H67.5884V41H62.7644ZM76.2115 34.052C76.2355 35.156 76.5235 35.96 77.0755 36.464C77.6515 36.944 78.4675 37.184 79.5235 37.184C81.7555 37.184 83.7475 37.112 85.4995 36.968L86.5075 36.86L86.5795 40.424C83.8195 41.096 81.3235 41.432 79.0915 41.432C76.3795 41.432 74.4115 40.712 73.1875 39.272C71.9635 37.832 71.3515 35.492 71.3515 32.252C71.3515 25.796 74.0035 22.568 79.3075 22.568C84.5395 22.568 87.1555 25.28 87.1555 30.704L86.7955 34.052H76.2115ZM82.4035 30.38C82.4035 28.94 82.1755 27.944 81.7195 27.392C81.2635 26.816 80.4595 26.528 79.3075 26.528C78.1795 26.528 77.3755 26.828 76.8955 27.428C76.4395 28.004 76.1995 28.988 76.1755 30.38H82.4035ZM100.575 27.104H96.1471V34.484C96.1471 35.204 96.1591 35.72 96.1831 36.032C96.2311 36.32 96.3631 36.572 96.5791 36.788C96.8191 37.004 97.1791 37.112 97.6591 37.112L100.395 37.04L100.611 40.892C99.0031 41.252 97.7791 41.432 96.9391 41.432C94.7791 41.432 93.3031 40.952 92.5111 39.992C91.7191 39.008 91.3231 37.208 91.3231 34.592V27.104H89.1991V23H91.3231V17.996H96.1471V23H100.575V27.104ZM104.688 25.052C105.96 23.396 108.084 22.568 111.06 22.568C114.036 22.568 116.16 23.396 117.432 25.052C118.704 26.684 119.34 28.988 119.34 31.964C119.34 38.276 116.58 41.432 111.06 41.432C105.54 41.432 102.78 38.276 102.78 31.964C102.78 28.988 103.416 26.684 104.688 25.052ZM108.396 36.032C108.9 36.896 109.788 37.328 111.06 37.328C112.332 37.328 113.208 36.896 113.688 36.032C114.192 35.168 114.444 33.812 114.444 31.964C114.444 30.116 114.192 28.772 113.688 27.932C113.208 27.092 112.332 26.672 111.06 26.672C109.788 26.672 108.9 27.092 108.396 27.932C107.916 28.772 107.676 30.116 107.676 31.964C107.676 33.812 107.916 35.168 108.396 36.032ZM122.877 48.56V23H127.665V23.972C129.225 23.036 130.593 22.568 131.769 22.568C134.193 22.568 135.981 23.3 137.133 24.764C138.285 26.204 138.861 28.664 138.861 32.144C138.861 35.624 138.225 38.048 136.953 39.416C135.681 40.76 133.593 41.432 130.689 41.432C129.897 41.432 129.045 41.36 128.133 41.216L127.701 41.144V48.56H122.877ZM130.833 26.888C129.945 26.888 129.045 27.068 128.133 27.428L127.701 27.608V37.04C128.781 37.184 129.657 37.256 130.329 37.256C131.721 37.256 132.669 36.848 133.173 36.032C133.701 35.216 133.965 33.824 133.965 31.856C133.965 28.544 132.921 26.888 130.833 26.888ZM148.605 20.912V16.52H166.605V20.912H160.125V41H155.157V20.912H148.605ZM167.455 41V23H172.243V24.908C174.259 23.708 176.179 22.928 178.003 22.568V27.428C176.059 27.836 174.391 28.256 172.999 28.688L172.279 28.94V41H167.455ZM194.637 28.616V36.104C194.685 36.68 194.781 37.088 194.925 37.328C195.069 37.544 195.369 37.7 195.825 37.796L195.681 41.432C194.457 41.432 193.473 41.348 192.729 41.18C192.009 41.012 191.277 40.676 190.533 40.172C188.805 41.012 187.041 41.432 185.241 41.432C181.521 41.432 179.661 39.464 179.661 35.528C179.661 33.608 180.177 32.252 181.209 31.46C182.241 30.644 183.825 30.164 185.961 30.02L189.813 29.732V28.616C189.813 27.872 189.645 27.368 189.309 27.104C188.973 26.816 188.433 26.672 187.689 26.672L180.921 26.96L180.777 23.612C183.345 22.916 185.781 22.568 188.085 22.568C190.413 22.568 192.081 23.048 193.089 24.008C194.121 24.968 194.637 26.504 194.637 28.616ZM186.537 33.368C185.193 33.488 184.521 34.208 184.521 35.528C184.521 36.848 185.109 37.508 186.285 37.508C187.197 37.508 188.193 37.364 189.273 37.076L189.813 36.932V33.08L186.537 33.368ZM205.968 22.568C207.216 22.568 208.812 22.76 210.756 23.144L211.728 23.36L211.584 27.176C209.688 26.984 208.284 26.888 207.372 26.888C205.716 26.888 204.612 27.248 204.06 27.968C203.532 28.664 203.268 29.996 203.268 31.964C203.268 33.932 203.532 35.288 204.06 36.032C204.612 36.752 205.728 37.112 207.408 37.112L211.584 36.824L211.728 40.676C209.16 41.18 207.204 41.432 205.86 41.432C203.196 41.432 201.276 40.688 200.1 39.2C198.948 37.688 198.372 35.276 198.372 31.964C198.372 28.652 198.972 26.264 200.172 24.8C201.372 23.312 203.304 22.568 205.968 22.568ZM220.126 41H215.302V15.8H220.126V30.128L221.962 29.804L225.526 23H230.926L226.246 31.532L231.178 41H225.742L222.106 33.98L220.126 34.304V41ZM237.473 34.052C237.497 35.156 237.785 35.96 238.337 36.464C238.913 36.944 239.729 37.184 240.785 37.184C243.017 37.184 245.009 37.112 246.761 36.968L247.769 36.86L247.841 40.424C245.081 41.096 242.585 41.432 240.353 41.432C237.641 41.432 235.673 40.712 234.449 39.272C233.225 37.832 232.613 35.492 232.613 32.252C232.613 25.796 235.265 22.568 240.569 22.568C245.801 22.568 248.417 25.28 248.417 30.704L248.057 34.052H237.473ZM243.665 30.38C243.665 28.94 243.437 27.944 242.981 27.392C242.525 26.816 241.721 26.528 240.569 26.528C239.441 26.528 238.637 26.828 238.157 27.428C237.701 28.004 237.461 28.988 237.437 30.38H243.665ZM251.865 41V23H256.653V24.908C258.669 23.708 260.589 22.928 262.413 22.568V27.428C260.469 27.836 258.801 28.256 257.409 28.688L256.689 28.94V41H251.865Z" fill="#020202"/>
<path d="M280.555 23.5817C281.525 21.7692 284.505 22.2098 284.909 24.2256L293.16 65.3795C293.444 66.7962 292.137 68.0148 290.58 67.7845L262.518 63.6345C260.962 63.4042 260.063 61.8594 260.745 60.5856L280.555 23.5817Z" fill="#B46847"/>
<path d="M291.512 22.551C290.775 27.5319 286.419 31.0139 281.782 30.3281C277.145 29.6423 273.983 25.0485 274.719 20.0676C275.456 15.0866 279.812 11.6047 284.449 12.2905C289.087 12.9763 292.249 17.5701 291.512 22.551Z" fill="#B46847"/>
</svg>
