<svg width="21" height="21" viewBox="0 0 21 21" fill="none" xmlns="http://www.w3.org/2000/svg">
<path d="M7.91716 0C10.0169 0 12.0307 0.834126 13.5154 2.31888C15.0002 3.80364 15.8343 5.8174 15.8343 7.91716C15.8343 9.65226 15.2759 11.2565 14.3301 12.5616L19.6354 17.8669C19.8648 18.093 19.9981 18.3988 20.0075 18.7207C20.0169 19.0427 19.9018 19.3558 19.686 19.5949C19.4702 19.834 19.1705 19.9805 18.8493 20.0041C18.5281 20.0276 18.2103 19.9263 17.9619 19.7212L17.8669 19.6354L12.5616 14.3301C11.2117 15.3104 9.58549 15.8371 7.91716 15.8343C5.8174 15.8343 3.80364 15.0002 2.31888 13.5154C0.834126 12.0307 0 10.0169 0 7.91716C0 5.8174 0.834126 3.80364 2.31888 2.31888C3.80364 0.834126 5.8174 3.12889e-08 7.91716 0ZM7.91716 2.50015C6.48048 2.50015 5.10264 3.07087 4.08676 4.08676C3.07087 5.10264 2.50015 6.48048 2.50015 7.91716C2.50015 9.35383 3.07087 10.7317 4.08676 11.7476C5.10264 12.7634 6.48048 13.3342 7.91716 13.3342C9.35384 13.3342 10.7317 12.7634 11.7476 11.7476C12.7634 10.7317 13.3342 9.35383 13.3342 7.91716C13.3342 6.48048 12.7634 5.10264 11.7476 4.08676C10.7317 3.07087 9.35384 2.50015 7.91716 2.50015Z" fill="#878787"/>
</svg>
